<svg width="45" height="45" viewBox="0 0 60 60" fill="none" xmlns="http://www.w3.org/2000/svg">
<path d="M30 33.75C30.4945 33.75 30.9778 33.6034 31.3889 33.3287C31.8 33.054 32.1205 32.6635 32.3097 32.2067C32.4989 31.7499 32.5484 31.2472 32.452 30.7623C32.3555 30.2773 32.1174 29.8319 31.7678 29.4822C31.4181 29.1326 30.9727 28.8945 30.4877 28.798C30.0028 28.7016 29.5001 28.7511 29.0433 28.9403C28.5865 29.1295 28.196 29.45 27.9213 29.8611C27.6466 30.2722 27.5 30.7555 27.5 31.25C27.5 31.913 27.7634 32.5489 28.2322 33.0178C28.7011 33.4866 29.337 33.75 30 33.75ZM30 43.75C30.4945 43.75 30.9778 43.6034 31.3889 43.3287C31.8 43.054 32.1205 42.6635 32.3097 42.2067C32.4989 41.7499 32.5484 41.2472 32.452 40.7623C32.3555 40.2773 32.1174 39.8319 31.7678 39.4822C31.4181 39.1326 30.9727 38.8945 30.4877 38.798C30.0028 38.7016 29.5001 38.7511 29.0433 38.9403C28.5865 39.1295 28.196 39.45 27.9213 39.8611C27.6466 40.2722 27.5 40.7556 27.5 41.25C27.5 41.913 27.7634 42.5489 28.2322 43.0178C28.7011 43.4866 29.337 43.75 30 43.75ZM30 23.75C30.4945 23.75 30.9778 23.6034 31.3889 23.3287C31.8 23.054 32.1205 22.6635 32.3097 22.2067C32.4989 21.7499 32.5484 21.2472 32.452 20.7623C32.3555 20.2773 32.1174 19.8319 31.7678 19.4822C31.4181 19.1326 30.9727 18.8945 30.4877 18.798C30.0028 18.7016 29.5001 18.7511 29.0433 18.9403C28.5865 19.1295 28.196 19.45 27.9213 19.8611C27.6466 20.2722 27.5 20.7555 27.5 21.25C27.5 21.913 27.7634 22.5489 28.2322 23.0178C28.7011 23.4866 29.337 23.75 30 23.75ZM20 13.75C20.4945 13.75 20.9778 13.6034 21.3889 13.3287C21.8 13.054 22.1205 12.6635 22.3097 12.2067C22.4989 11.7499 22.5484 11.2472 22.452 10.7623C22.3555 10.2773 22.1174 9.83187 21.7678 9.48223C21.4181 9.1326 20.9727 8.8945 20.4877 8.79804C20.0028 8.70157 19.5001 8.75108 19.0433 8.9403C18.5865 9.12952 18.196 9.44995 17.9213 9.86108C17.6466 10.2722 17.5 10.7555 17.5 11.25C17.5 11.913 17.7634 12.5489 18.2322 13.0178C18.7011 13.4866 19.337 13.75 20 13.75ZM20 33.75C20.4945 33.75 20.9778 33.6034 21.3889 33.3287C21.8 33.054 22.1205 32.6635 22.3097 32.2067C22.4989 31.7499 22.5484 31.2472 22.452 30.7623C22.3555 30.2773 22.1174 29.8319 21.7678 29.4822C21.4181 29.1326 20.9727 28.8945 20.4877 28.798C20.0028 28.7016 19.5001 28.7511 19.0433 28.9403C18.5865 29.1295 18.196 29.45 17.9213 29.8611C17.6466 30.2722 17.5 30.7555 17.5 31.25C17.5 31.913 17.7634 32.5489 18.2322 33.0178C18.7011 33.4866 19.337 33.75 20 33.75ZM50 13.75C50.4945 13.75 50.9778 13.6034 51.3889 13.3287C51.8 13.054 52.1205 12.6635 52.3097 12.2067C52.4989 11.7499 52.5484 11.2472 52.452 10.7623C52.3555 10.2773 52.1174 9.83187 51.7678 9.48223C51.4181 9.1326 50.9727 8.8945 50.4877 8.79804C50.0028 8.70157 49.5001 8.75108 49.0433 8.9403C48.5865 9.12952 48.196 9.44995 47.9213 9.86108C47.6466 10.2722 47.5 10.7555 47.5 11.25C47.5 11.913 47.7634 12.5489 48.2322 13.0178C48.7011 13.4866 49.337 13.75 50 13.75ZM40 33.75C40.4945 33.75 40.9778 33.6034 41.3889 33.3287C41.8 33.054 42.1205 32.6635 42.3097 32.2067C42.4989 31.7499 42.5484 31.2472 42.452 30.7623C42.3555 30.2773 42.1174 29.8319 41.7678 29.4822C41.4181 29.1326 40.9727 28.8945 40.4877 28.798C40.0028 28.7016 39.5001 28.7511 39.0433 28.9403C38.5865 29.1295 38.196 29.45 37.9213 29.8611C37.6466 30.2722 37.5 30.7555 37.5 31.25C37.5 31.913 37.7634 32.5489 38.2322 33.0178C38.7011 33.4866 39.337 33.75 40 33.75ZM30 13.75C30.4945 13.75 30.9778 13.6034 31.3889 13.3287C31.8 13.054 32.1205 12.6635 32.3097 12.2067C32.4989 11.7499 32.5484 11.2472 32.452 10.7623C32.3555 10.2773 32.1174 9.83187 31.7678 9.48223C31.4181 9.1326 30.9727 8.8945 30.4877 8.79804C30.0028 8.70157 29.5001 8.75108 29.0433 8.9403C28.5865 9.12952 28.196 9.44995 27.9213 9.86108C27.6466 10.2722 27.5 10.7555 27.5 11.25C27.5 11.913 27.7634 12.5489 28.2322 13.0178C28.7011 13.4866 29.337 13.75 30 13.75ZM40 13.75C40.4945 13.75 40.9778 13.6034 41.3889 13.3287C41.8 13.054 42.1205 12.6635 42.3097 12.2067C42.4989 11.7499 42.5484 11.2472 42.452 10.7623C42.3555 10.2773 42.1174 9.83187 41.7678 9.48223C41.4181 9.1326 40.9727 8.8945 40.4877 8.79804C40.0028 8.70157 39.5001 8.75108 39.0433 8.9403C38.5865 9.12952 38.196 9.44995 37.9213 9.86108C37.6466 10.2722 37.5 10.7555 37.5 11.25C37.5 11.913 37.7634 12.5489 38.2322 13.0178C38.7011 13.4866 39.337 13.75 40 13.75ZM50 38.75C49.5055 38.75 49.0222 38.8966 48.6111 39.1713C48.2 39.446 47.8795 39.8365 47.6903 40.2933C47.5011 40.7501 47.4516 41.2528 47.548 41.7377C47.6445 42.2227 47.8826 42.6681 48.2322 43.0178C48.5819 43.3674 49.0273 43.6055 49.5123 43.702C49.9972 43.7984 50.4999 43.7489 50.9567 43.5597C51.4135 43.3705 51.804 43.0501 52.0787 42.6389C52.3534 42.2278 52.5 41.7445 52.5 41.25C52.5 40.587 52.2366 39.9511 51.7678 39.4822C51.2989 39.0134 50.663 38.75 50 38.75ZM50 28.75C49.5055 28.75 49.0222 28.8966 48.6111 29.1713C48.2 29.446 47.8795 29.8365 47.6903 30.2933C47.5011 30.7501 47.4516 31.2528 47.548 31.7377C47.6445 32.2227 47.8826 32.6681 48.2322 33.0178C48.5819 33.3674 49.0273 33.6055 49.5123 33.702C49.9972 33.7984 50.4999 33.7489 50.9567 33.5597C51.4135 33.3705 51.804 33.0501 52.0787 32.6389C52.3534 32.2278 52.5 31.7445 52.5 31.25C52.5 30.587 52.2366 29.9511 51.7678 29.4822C51.2989 29.0134 50.663 28.75 50 28.75ZM50 48.75H10C9.33696 48.75 8.70107 49.0134 8.23223 49.4822C7.76339 49.9511 7.5 50.587 7.5 51.25C7.5 51.913 7.76339 52.5489 8.23223 53.0178C8.70107 53.4866 9.33696 53.75 10 53.75H50C50.663 53.75 51.2989 53.4866 51.7678 53.0178C52.2366 52.5489 52.5 51.913 52.5 51.25C52.5 50.587 52.2366 49.9511 51.7678 49.4822C51.2989 49.0134 50.663 48.75 50 48.75ZM50 18.75C49.5055 18.75 49.0222 18.8966 48.6111 19.1713C48.2 19.446 47.8795 19.8365 47.6903 20.2933C47.5011 20.7501 47.4516 21.2528 47.548 21.7377C47.6445 22.2227 47.8826 22.6681 48.2322 23.0178C48.5819 23.3674 49.0273 23.6055 49.5123 23.702C49.9972 23.7984 50.4999 23.7489 50.9567 23.5597C51.4135 23.3705 51.804 23.0501 52.0787 22.6389C52.3534 22.2278 52.5 21.7445 52.5 21.25C52.5 20.587 52.2366 19.9511 51.7678 19.4822C51.2989 19.0134 50.663 18.75 50 18.75ZM10 33.75C10.4945 33.75 10.9778 33.6034 11.3889 33.3287C11.8 33.054 12.1205 32.6635 12.3097 32.2067C12.4989 31.7499 12.5484 31.2472 12.452 30.7623C12.3555 30.2773 12.1174 29.8319 11.7678 29.4822C11.4181 29.1326 10.9727 28.8945 10.4877 28.798C10.0028 28.7016 9.50011 28.7511 9.04329 28.9403C8.58648 29.1295 8.19603 29.45 7.92133 29.8611C7.64662 30.2722 7.5 30.7555 7.5 31.25C7.5 31.913 7.76339 32.5489 8.23223 33.0178C8.70107 33.4866 9.33696 33.75 10 33.75ZM10 23.75C10.4945 23.75 10.9778 23.6034 11.3889 23.3287C11.8 23.054 12.1205 22.6635 12.3097 22.2067C12.4989 21.7499 12.5484 21.2472 12.452 20.7623C12.3555 20.2773 12.1174 19.8319 11.7678 19.4822C11.4181 19.1326 10.9727 18.8945 10.4877 18.798C10.0028 18.7016 9.50011 18.7511 9.04329 18.9403C8.58648 19.1295 8.19603 19.45 7.92133 19.8611C7.64662 20.2722 7.5 20.7555 7.5 21.25C7.5 21.913 7.76339 22.5489 8.23223 23.0178C8.70107 23.4866 9.33696 23.75 10 23.75ZM10 43.75C10.4945 43.75 10.9778 43.6034 11.3889 43.3287C11.8 43.054 12.1205 42.6635 12.3097 42.2067C12.4989 41.7499 12.5484 41.2472 12.452 40.7623C12.3555 40.2773 12.1174 39.8319 11.7678 39.4822C11.4181 39.1326 10.9727 38.8945 10.4877 38.798C10.0028 38.7016 9.50011 38.7511 9.04329 38.9403C8.58648 39.1295 8.19603 39.45 7.92133 39.8611C7.64662 40.2722 7.5 40.7556 7.5 41.25C7.5 41.913 7.76339 42.5489 8.23223 43.0178C8.70107 43.4866 9.33696 43.75 10 43.75ZM10 13.75C10.4945 13.75 10.9778 13.6034 11.3889 13.3287C11.8 13.054 12.1205 12.6635 12.3097 12.2067C12.4989 11.7499 12.5484 11.2472 12.452 10.7623C12.3555 10.2773 12.1174 9.83187 11.7678 9.48223C11.4181 9.1326 10.9727 8.8945 10.4877 8.79804C10.0028 8.70157 9.50011 8.75108 9.04329 8.9403C8.58648 9.12952 8.19603 9.44995 7.92133 9.86108C7.64662 10.2722 7.5 10.7555 7.5 11.25C7.5 11.913 7.76339 12.5489 8.23223 13.0178C8.70107 13.4866 9.33696 13.75 10 13.75Z" fill="white"/>
</svg>
