<svg width="100" height="100" viewBox="0 0 122 116" fill="none" xmlns="http://www.w3.org/2000/svg">
<ellipse cx="61" cy="58" rx="61" ry="58" fill="#550000"/>
<path d="M85.4501 37.05C85.7402 36.6841 85.9221 36.2443 85.9751 35.7804C86.0282 35.3164 85.9502 34.8469 85.7501 34.425C85.5474 33.9996 85.2287 33.6401 84.8306 33.3879C84.4325 33.1358 83.9713 33.0013 83.5001 33H38.5001C38.0288 33.0013 37.5676 33.1358 37.1695 33.3879C36.7714 33.6401 36.4527 33.9996 36.2501 34.425C36.0499 34.8469 35.9719 35.3164 36.025 35.7804C36.078 36.2443 36.2599 36.6841 36.5501 37.05L58.5001 64.5V78H44.1251C43.462 78 42.8261 78.2634 42.3573 78.7322C41.8884 79.2011 41.6251 79.837 41.6251 80.5C41.6251 81.163 41.8884 81.7989 42.3573 82.2678C42.8261 82.7366 43.462 83 44.1251 83H77.8751C78.5381 83 79.174 82.7366 79.6428 82.2678C80.1117 81.7989 80.3751 81.163 80.3751 80.5C80.3751 79.837 80.1117 79.2011 79.6428 78.7322C79.174 78.2634 78.5381 78 77.8751 78H63.5001V64.5L85.4501 37.05ZM43.7001 38H78.3001L72.3001 45.5H49.8001L43.7001 38ZM61.0001 59.625L53.7001 50.5H68.3001L61.0001 59.625Z" fill="white"/>
</svg>
