<svg width="45" height="45" viewBox="0 0 60 60" fill="none" xmlns="http://www.w3.org/2000/svg">
<path d="M55 30H12.5V16.0254C12.4912 15.1251 12.7288 14.2395 13.1871 13.4645C13.6454 12.6895 14.3069 12.0545 15.1 11.6284C15.977 11.1531 16.9764 10.9518 17.9691 11.0504C17.4639 12.5805 17.3921 14.2207 17.7617 15.7891C18.1314 17.3575 18.928 18.793 20.0634 19.9365L22.7149 22.5879C22.9469 22.8201 23.2225 23.0043 23.5258 23.1299C23.8291 23.2556 24.1541 23.3203 24.4824 23.3203C24.8107 23.3203 25.1358 23.2556 25.4391 23.1299C25.7424 23.0043 26.0179 22.8201 26.25 22.5879L35.0879 13.75C35.3201 13.5179 35.5043 13.2423 35.63 12.9391C35.7556 12.6358 35.8203 12.3107 35.8203 11.9824C35.8203 11.6541 35.7556 11.329 35.63 11.0257C35.5043 10.7225 35.3201 10.4469 35.0879 10.2148L32.4365 7.56345C30.9608 6.09439 29.0089 5.20081 26.9325 5.0438C24.8562 4.88679 22.7921 5.47668 21.1122 6.70712C19.5976 6.1156 17.9615 5.90305 16.346 6.08797C14.7306 6.27289 13.1848 6.84968 11.843 7.76816C10.5013 8.68664 9.40428 9.91901 8.64737 11.3581C7.89046 12.7972 7.49658 14.3994 7.5 16.0254V30H5C4.33696 30 3.70107 30.2634 3.23223 30.7322C2.76339 31.201 2.5 31.8369 2.5 32.5C2.5 33.163 2.76339 33.7989 3.23223 34.2677C3.70107 34.7366 4.33696 35 5 35H7.5V42.5C7.50476 44.0459 7.98793 45.5525 8.88318 46.8129C9.77843 48.0732 11.0419 49.0256 12.5 49.5392V52.5C12.5 53.163 12.7634 53.7989 13.2322 54.2677C13.7011 54.7366 14.337 55 15 55C15.663 55 16.2989 54.7366 16.7678 54.2677C17.2366 53.7989 17.5 53.163 17.5 52.5V50H42.5V52.5C42.5 53.163 42.7634 53.7989 43.2322 54.2677C43.7011 54.7366 44.337 55 45 55C45.663 55 46.2989 54.7366 46.7678 54.2677C47.2366 53.7989 47.5 53.163 47.5 52.5V49.5393C48.9582 49.0257 50.2216 48.0733 51.1168 46.8129C52.0121 45.5525 52.4952 44.0459 52.5 42.5V35H55C55.663 35 56.2989 34.7366 56.7678 34.2677C57.2366 33.7989 57.5 33.163 57.5 32.5C57.5 31.8369 57.2366 31.201 56.7678 30.7322C56.2989 30.2634 55.663 30 55 30ZM23.5986 11.0986C24.3025 10.3966 25.2559 10.0024 26.25 10.0024C27.2441 10.0024 28.1975 10.3966 28.9014 11.0986L29.7851 11.9824L24.4825 17.2851L23.5987 16.4014C22.8963 15.6977 22.5019 14.7442 22.5019 13.75C22.5018 12.7558 22.8963 11.8022 23.5986 11.0986ZM47.5 42.5C47.4996 43.1629 47.236 43.7985 46.7673 44.2673C46.2985 44.736 45.6629 44.9995 45 45H15C14.3371 44.9995 13.7015 44.736 13.2327 44.2673C12.764 43.7985 12.5004 43.1629 12.5 42.5V35H47.5V42.5Z" fill="white"/>
</svg>
