<svg width="45" height="45" viewBox="0 0 60 60" fill="none" xmlns="http://www.w3.org/2000/svg">
<path d="M17.5 31.25C18.9834 31.25 20.4334 30.8101 21.6668 29.986C22.9001 29.1619 23.8614 27.9906 24.4291 26.6201C24.9968 25.2497 25.1453 23.7417 24.8559 22.2868C24.5665 20.832 23.8522 19.4956 22.8033 18.4467C21.7544 17.3978 20.418 16.6835 18.9632 16.3941C17.5083 16.1047 16.0003 16.2532 14.6299 16.8209C13.2594 17.3886 12.0881 18.3499 11.264 19.5832C10.4399 20.8166 10 22.2666 10 23.75C10 25.7391 10.7902 27.6468 12.1967 29.0533C13.6032 30.4598 15.5109 31.25 17.5 31.25ZM17.5 21.25C17.9945 21.25 18.4778 21.3966 18.8889 21.6713C19.3 21.946 19.6205 22.3365 19.8097 22.7933C19.9989 23.2501 20.0484 23.7528 19.952 24.2377C19.8555 24.7227 19.6174 25.1681 19.2678 25.5178C18.9181 25.8674 18.4727 26.1055 17.9877 26.202C17.5028 26.2984 17.0001 26.2489 16.5433 26.0597C16.0865 25.8705 15.696 25.55 15.4213 25.1389C15.1466 24.7278 15 24.2445 15 23.75C15 23.087 15.2634 22.4511 15.7322 21.9822C16.2011 21.5134 16.837 21.25 17.5 21.25ZM50 16.25H30C29.337 16.25 28.7011 16.5134 28.2322 16.9822C27.7634 17.4511 27.5 18.087 27.5 18.75V33.75H7.5V13.75C7.5 13.087 7.23661 12.4511 6.76777 11.9822C6.29893 11.5134 5.66304 11.25 5 11.25C4.33696 11.25 3.70107 11.5134 3.23223 11.9822C2.76339 12.4511 2.5 13.087 2.5 13.75V46.25C2.5 46.913 2.76339 47.5489 3.23223 48.0178C3.70107 48.4866 4.33696 48.75 5 48.75C5.66304 48.75 6.29893 48.4866 6.76777 48.0178C7.23661 47.5489 7.5 46.913 7.5 46.25V38.75H52.5V46.25C52.5 46.913 52.7634 47.5489 53.2322 48.0178C53.7011 48.4866 54.337 48.75 55 48.75C55.663 48.75 56.2989 48.4866 56.7678 48.0178C57.2366 47.5489 57.5 46.913 57.5 46.25V23.75C57.5 21.7609 56.7098 19.8532 55.3033 18.4467C53.8968 17.0402 51.9891 16.25 50 16.25ZM52.5 33.75H32.5V21.25H50C50.663 21.25 51.2989 21.5134 51.7678 21.9822C52.2366 22.4511 52.5 23.087 52.5 23.75V33.75Z" fill="white"/>
</svg>
