<svg width="45" height="45" viewBox="0 0 60 60" fill="none" xmlns="http://www.w3.org/2000/svg">
<path d="M49.7254 23.875C49.5176 23.4627 49.1998 23.116 48.807 22.8733C48.4143 22.6306 47.9621 22.5014 47.5004 22.5H35.0004V7.49999C35.0272 6.95169 34.8728 6.40981 34.5611 5.95799C34.2493 5.50616 33.7975 5.1695 33.2754 4.99999C32.7735 4.83484 32.2321 4.83299 31.729 4.99468C31.226 5.15638 30.7871 5.47331 30.4754 5.89999L10.4754 33.4C10.2248 33.7621 10.0743 34.1841 10.0392 34.6231C10.0041 35.0621 10.0856 35.5026 10.2754 35.9C10.4502 36.3544 10.7539 36.7478 11.1491 37.032C11.5444 37.3163 12.014 37.4789 12.5004 37.5H25.0004V52.5C25.0008 53.0272 25.1678 53.5408 25.4776 53.9673C25.7874 54.3939 26.2242 54.7116 26.7254 54.875C26.9766 54.9528 27.2375 54.9949 27.5004 55C27.8948 55.001 28.284 54.9087 28.6359 54.7305C28.9879 54.5524 29.2927 54.2935 29.5254 53.975L49.5254 26.475C49.7947 26.102 49.9559 25.6619 49.9912 25.2031C50.0265 24.7444 49.9345 24.2848 49.7254 23.875ZM30.0004 44.8V35C30.0004 34.3369 29.737 33.7011 29.2682 33.2322C28.7993 32.7634 28.1634 32.5 27.5004 32.5H17.5004L30.0004 15.2V25C30.0004 25.663 30.2638 26.2989 30.7326 26.7677C31.2015 27.2366 31.8373 27.5 32.5004 27.5H42.5004L30.0004 44.8Z" fill="white"/>
</svg>
