<svg width="40" height="40" viewBox="0 0 40 40" fill="none" xmlns="http://www.w3.org/2000/svg">
<path fill-rule="evenodd" clip-rule="evenodd" d="M8.73888 10.0001H20.8337C21.3511 10.0001 21.8615 10.1206 22.3244 10.352C22.7872 10.5834 23.1898 10.9194 23.5003 11.3334L27.5997 16.7992L35.5337 18.1216C35.535 18.1218 35.5364 18.122 35.5378 18.1222C36.3192 18.2499 37.0297 18.6516 37.542 19.2554C38.0547 19.8596 38.3353 20.6267 38.3337 21.419C38.3337 21.4199 38.3337 21.4207 38.3337 21.4216L36.6671 21.4167H38.3337V21.419V26.6667C38.3337 27.5872 37.5875 28.3334 36.667 28.3334H31.667C30.7465 28.3334 30.0003 27.5872 30.0003 26.6667C30.0003 25.7463 30.7465 25.0001 31.667 25.0001H35.0003V26.6667H36.667V25.0001H35.0003V21.4167L35.0003 21.4119L34.993 21.4107L26.393 19.9774C25.9702 19.9069 25.5908 19.6763 25.3337 19.3334L20.8337 13.3334H8.72206C8.41145 13.3313 8.10642 13.4159 7.84138 13.5779C7.5784 13.7386 7.36517 13.969 7.22534 14.2436L7.22984 14.2344L5.73366 13.5001L7.22206 14.25C7.22315 14.2479 7.22424 14.2457 7.22534 14.2436L5.88929 16.9658C5.30627 18.1247 5.00183 19.4037 5.00033 20.701C5.00033 20.7013 5.00033 20.7008 5.00033 20.701V25.0001H3.33366V26.6667H5.00033V25.0001H6.66699C7.58747 25.0001 8.33366 25.7463 8.33366 26.6667C8.33366 27.5872 7.58747 28.3334 6.66699 28.3334H3.33366C2.41318 28.3334 1.66699 27.5872 1.66699 26.6667L1.66699 20.6983C1.66892 18.8845 2.09372 17.0962 2.90761 15.4754L2.90415 15.4824L4.40033 16.2167L2.91144 15.4678C2.91016 15.4703 2.90889 15.4728 2.90761 15.4754L4.24518 12.7501C4.66448 11.9179 5.30808 11.2195 6.10321 10.7336C6.89652 10.2488 7.80926 9.9948 8.73888 10.0001ZM13.3337 26.6667C13.3337 25.7463 14.0799 25.0001 15.0003 25.0001H23.3337C24.2541 25.0001 25.0003 25.7463 25.0003 26.6667C25.0003 27.5872 24.2541 28.3334 23.3337 28.3334H15.0003C14.0799 28.3334 13.3337 27.5872 13.3337 26.6667Z" fill="white"/>
<path fill-rule="evenodd" clip-rule="evenodd" d="M10.8333 25.0001C9.45262 25.0001 8.33333 26.1194 8.33333 27.5001C8.33333 28.8808 9.45262 30.0001 10.8333 30.0001C12.214 30.0001 13.3333 28.8808 13.3333 27.5001C13.3333 26.1194 12.214 25.0001 10.8333 25.0001ZM5 27.5001C5 24.2784 7.61167 21.6667 10.8333 21.6667C14.055 21.6667 16.6667 24.2784 16.6667 27.5001C16.6667 30.7217 14.055 33.3334 10.8333 33.3334C7.61167 33.3334 5 30.7217 5 27.5001Z" fill="white"/>
<path fill-rule="evenodd" clip-rule="evenodd" d="M27.5003 25.0001C26.1196 25.0001 25.0003 26.1194 25.0003 27.5001C25.0003 28.8808 26.1196 30.0001 27.5003 30.0001C28.881 30.0001 30.0003 28.8808 30.0003 27.5001C30.0003 26.1194 28.881 25.0001 27.5003 25.0001ZM21.667 27.5001C21.667 24.2784 24.2787 21.6667 27.5003 21.6667C30.722 21.6667 33.3337 24.2784 33.3337 27.5001C33.3337 30.7217 30.722 33.3334 27.5003 33.3334C24.2787 33.3334 21.667 30.7217 21.667 27.5001Z" fill="white"/>
</svg>
