<svg width="51" height="51" viewBox="0 0 51 51" fill="none" xmlns="http://www.w3.org/2000/svg">
<path fill-rule="evenodd" clip-rule="evenodd" d="M11.1417 12.7501H26.5625C27.2223 12.7501 27.873 12.9037 28.4632 13.1988C29.0533 13.4939 29.5666 13.9223 29.9625 14.4501L35.1892 21.419L45.305 23.105C45.3068 23.1053 45.3085 23.1056 45.3103 23.1058C46.3066 23.2686 47.2125 23.7807 47.8657 24.5506C48.5193 25.321 48.8771 26.299 48.875 27.3092C48.875 27.3103 48.875 27.3114 48.875 27.3125L46.7502 27.3064H48.875V27.3092V34.0001C48.875 35.1737 47.9236 36.1251 46.75 36.1251H40.375C39.2014 36.1251 38.25 35.1737 38.25 34.0001C38.25 32.8265 39.2014 31.8751 40.375 31.8751H44.625V34.0001H46.75V31.8751H44.625V27.3064L44.625 27.3002L44.6157 27.2987L33.6507 25.4712C33.1116 25.3813 32.6279 25.0873 32.3 24.6501L26.5625 17.0001H11.1202C10.7242 16.9973 10.3353 17.1053 9.99734 17.3118C9.66205 17.5167 9.39018 17.8105 9.21189 18.1606L9.21763 18.1489L7.31 17.2126L9.20771 18.1688C9.2091 18.166 9.21049 18.1633 9.21189 18.1606L7.50842 21.6314C6.76508 23.109 6.37692 24.7398 6.375 26.3938C6.375 26.3942 6.375 26.3935 6.375 26.3938V31.8751H4.25V34.0001H6.375V31.8751H8.5C9.6736 31.8751 10.625 32.8265 10.625 34.0001C10.625 35.1737 9.6736 36.1251 8.5 36.1251H4.25C3.07639 36.1251 2.125 35.1737 2.125 34.0001L2.125 26.3903C2.12746 24.0778 2.66908 21.7977 3.70679 19.7311L3.70237 19.7401L5.61 20.6764L3.71167 19.7214C3.71004 19.7246 3.70841 19.7279 3.70679 19.7311L5.41218 16.2564C5.9468 15.1953 6.76739 14.3049 7.78118 13.6853C8.79265 13.0672 9.95639 12.7434 11.1417 12.7501ZM17 34.0001C17 32.8265 17.9514 31.8751 19.125 31.8751H29.75C30.9236 31.8751 31.875 32.8265 31.875 34.0001C31.875 35.1737 30.9236 36.1251 29.75 36.1251H19.125C17.9514 36.1251 17 35.1737 17 34.0001Z" fill="white"/>
<path fill-rule="evenodd" clip-rule="evenodd" d="M13.8125 31.875C12.0521 31.875 10.625 33.3021 10.625 35.0625C10.625 36.8229 12.0521 38.25 13.8125 38.25C15.5729 38.25 17 36.8229 17 35.0625C17 33.3021 15.5729 31.875 13.8125 31.875ZM6.375 35.0625C6.375 30.9549 9.70488 27.625 13.8125 27.625C17.9201 27.625 21.25 30.9549 21.25 35.0625C21.25 39.1701 17.9201 42.5 13.8125 42.5C9.70488 42.5 6.375 39.1701 6.375 35.0625Z" fill="white"/>
<path fill-rule="evenodd" clip-rule="evenodd" d="M35.0625 31.875C33.3021 31.875 31.875 33.3021 31.875 35.0625C31.875 36.8229 33.3021 38.25 35.0625 38.25C36.8229 38.25 38.25 36.8229 38.25 35.0625C38.25 33.3021 36.8229 31.875 35.0625 31.875ZM27.625 35.0625C27.625 30.9549 30.9549 27.625 35.0625 27.625C39.1701 27.625 42.5 30.9549 42.5 35.0625C42.5 39.1701 39.1701 42.5 35.0625 42.5C30.9549 42.5 27.625 39.1701 27.625 35.0625Z" fill="white"/>
</svg>
