<svg width="51" height="51" viewBox="0 0 51 51" fill="none" xmlns="http://www.w3.org/2000/svg">
<path fill-rule="evenodd" clip-rule="evenodd" d="M25.5 12.75C17.2848 12.75 10.625 19.4098 10.625 27.625C10.625 35.8402 17.2848 42.5 25.5 42.5C33.7152 42.5 40.375 35.8402 40.375 27.625C40.375 19.4098 33.7152 12.75 25.5 12.75ZM6.375 27.625C6.375 17.0626 14.9376 8.5 25.5 8.5C36.0624 8.5 44.625 17.0626 44.625 27.625C44.625 38.1874 36.0624 46.75 25.5 46.75C14.9376 46.75 6.375 38.1874 6.375 27.625Z" fill="white"/>
<path fill-rule="evenodd" clip-rule="evenodd" d="M25.5 17C26.6736 17 27.625 17.9514 27.625 19.125V26.7448L31.2526 30.3724C32.0825 31.2023 32.0825 32.5477 31.2526 33.3776C30.4227 34.2075 29.0773 34.2075 28.2474 33.3776L23.9974 29.1276C23.5989 28.7291 23.375 28.1886 23.375 27.625V19.125C23.375 17.9514 24.3264 17 25.5 17Z" fill="white"/>
<path fill-rule="evenodd" clip-rule="evenodd" d="M12.1276 4.8724C12.9575 5.70226 12.9575 7.04774 12.1276 7.8776L5.7526 14.2526C4.92274 15.0825 3.57726 15.0825 2.7474 14.2526C1.91753 13.4227 1.91753 12.0773 2.7474 11.2474L9.1224 4.8724C9.95226 4.04253 11.2977 4.04253 12.1276 4.8724Z" fill="white"/>
<path fill-rule="evenodd" clip-rule="evenodd" d="M38.8724 4.8724C39.7023 4.04253 41.0477 4.04253 41.8776 4.8724L48.2526 11.2474C49.0825 12.0773 49.0825 13.4227 48.2526 14.2526C47.4227 15.0825 46.0773 15.0825 45.2474 14.2526L38.8724 7.8776C38.0425 7.04774 38.0425 5.70226 38.8724 4.8724Z" fill="white"/>
<path fill-rule="evenodd" clip-rule="evenodd" d="M14.2526 38.8724C15.0825 39.7023 15.0825 41.0477 14.2526 41.8776L10.0026 46.1276C9.17274 46.9575 7.82726 46.9575 6.9974 46.1276C6.16753 45.2977 6.16753 43.9523 6.9974 43.1224L11.2474 38.8724C12.0773 38.0425 13.4227 38.0425 14.2526 38.8724Z" fill="white"/>
<path fill-rule="evenodd" clip-rule="evenodd" d="M36.7474 38.8724C37.5773 38.0425 38.9227 38.0425 39.7526 38.8724L44.0026 43.1224C44.8325 43.9523 44.8325 45.2977 44.0026 46.1276C43.1727 46.9575 41.8273 46.9575 40.9974 46.1276L36.7474 41.8776C35.9175 41.0477 35.9175 39.7023 36.7474 38.8724Z" fill="white"/>
</svg>
