<svg width="40" height="40" viewBox="0 0 40 40" fill="none" xmlns="http://www.w3.org/2000/svg">
<path fill-rule="evenodd" clip-rule="evenodd" d="M20 10.0001C13.5567 10.0001 8.33333 15.2234 8.33333 21.6667C8.33333 28.1101 13.5567 33.3334 20 33.3334C26.4433 33.3334 31.6667 28.1101 31.6667 21.6667C31.6667 15.2234 26.4433 10.0001 20 10.0001ZM5 21.6667C5 13.3825 11.7157 6.66675 20 6.66675C28.2843 6.66675 35 13.3825 35 21.6667C35 29.951 28.2843 36.6667 20 36.6667C11.7157 36.6667 5 29.951 5 21.6667Z" fill="white"/>
<path fill-rule="evenodd" clip-rule="evenodd" d="M19.9997 13.3333C20.9201 13.3333 21.6663 14.0794 21.6663 14.9999V20.9762L24.5115 23.8214C25.1624 24.4723 25.1624 25.5276 24.5115 26.1784C23.8606 26.8293 22.8054 26.8293 22.1545 26.1784L18.8212 22.8451C18.5086 22.5325 18.333 22.1086 18.333 21.6666V14.9999C18.333 14.0794 19.0792 13.3333 19.9997 13.3333Z" fill="white"/>
<path fill-rule="evenodd" clip-rule="evenodd" d="M9.51217 3.82141C10.163 4.47228 10.163 5.52756 9.51217 6.17843L4.51217 11.1784C3.8613 11.8293 2.80602 11.8293 2.15515 11.1784C1.50427 10.5276 1.50427 9.47228 2.15515 8.82141L7.15515 3.82141C7.80602 3.17053 8.8613 3.17053 9.51217 3.82141Z" fill="white"/>
<path fill-rule="evenodd" clip-rule="evenodd" d="M30.4882 3.82141C31.139 3.17053 32.1943 3.17053 32.8452 3.82141L37.8452 8.82141C38.4961 9.47228 38.4961 10.5276 37.8452 11.1784C37.1943 11.8293 36.139 11.8293 35.4882 11.1784L30.4882 6.17843C29.8373 5.52756 29.8373 4.47228 30.4882 3.82141Z" fill="white"/>
<path fill-rule="evenodd" clip-rule="evenodd" d="M11.1785 30.4882C11.8294 31.139 11.8294 32.1943 11.1785 32.8452L7.84518 36.1785C7.1943 36.8294 6.13903 36.8294 5.48816 36.1785C4.83728 35.5276 4.83728 34.4724 5.48816 33.8215L8.82149 30.4882C9.47236 29.8373 10.5276 29.8373 11.1785 30.4882Z" fill="white"/>
<path fill-rule="evenodd" clip-rule="evenodd" d="M28.8212 30.4882C29.472 29.8373 30.5273 29.8373 31.1782 30.4882L34.5115 33.8215C35.1624 34.4724 35.1624 35.5276 34.5115 36.1785C33.8606 36.8294 32.8054 36.8294 32.1545 36.1785L28.8212 32.8452C28.1703 32.1943 28.1703 31.139 28.8212 30.4882Z" fill="white"/>
</svg>
