<svg width="40" height="40" viewBox="0 0 42 42" fill="none" xmlns="http://www.w3.org/2000/svg">
<path d="M26.0467 12.0172C26.4732 13.2965 26.5062 13.9862 26.0467 15.1471M14.6449 11.3599V15.4366C14.6449 15.5737 14.6896 15.7069 14.7723 15.816L15.5143 16.7944C15.597 16.9034 15.6417 17.0367 15.6417 17.1737V30.421C15.6417 30.7667 15.9207 31.0469 16.2648 31.0469H16.3894C16.7335 31.0469 17.0125 30.7667 17.0125 30.421V17.1737C17.0125 17.0367 17.0572 16.9034 17.1399 16.7944L17.8819 15.816C17.9646 15.7069 18.0093 15.5737 18.0093 15.4366V11.3599C18.0093 11.1698 17.8559 11.0156 17.6667 11.0156C17.4774 11.0156 17.324 11.1698 17.324 11.3599V14.2081C17.324 14.381 17.1845 14.5211 17.0125 14.5211C16.8404 14.5211 16.7009 14.381 16.7009 14.2081V11.3912C16.7009 11.1838 16.5336 11.0156 16.3271 11.0156C16.1206 11.0156 15.9533 11.1838 15.9533 11.3912V14.2081C15.9533 14.381 15.8138 14.5211 15.6417 14.5211C15.4697 14.5211 15.3302 14.381 15.3302 14.2081V11.3599C15.3302 11.1698 15.1768 11.0156 14.9875 11.0156C14.7983 11.0156 14.6449 11.1698 14.6449 11.3599ZM24.3645 17.043V30.421C24.3645 30.7667 24.6434 31.0469 24.9875 31.0469H25.1122C25.4563 31.0469 25.7352 30.7667 25.7352 30.421V17.0469C25.7352 16.9925 25.7553 16.9401 25.7916 16.8998L26.0587 16.6032C26.6124 15.9883 26.919 15.1888 26.919 14.3596V12.831C26.919 11.8284 26.11 11.0156 25.1122 11.0156C24.1143 11.0156 23.3053 11.8284 23.3053 12.831V14.4367C23.3053 15.2203 23.5731 15.9802 24.0638 16.5893L24.314 16.8998C24.3467 16.9403 24.3645 16.9909 24.3645 17.043ZM7.79128 21.2817V21.5327C7.79128 28.9653 13.8166 34.9906 21.2492 34.9906V34.9906C28.6818 34.9906 34.7072 28.9653 34.7072 21.5327V20.5925C34.7072 13.1599 28.6818 7.13459 21.2492 7.13459V7.13459C13.8166 7.13459 7.79128 13.1599 7.79128 20.5925V21.2817ZM41 21V21C41 32.0457 32.0457 41 21 41V41C9.95431 41 1 32.0457 1 21V21C1 9.95431 9.95431 1 21 1V1C32.0457 1 41 9.95431 41 21Z" stroke="white"/>
</svg>
