<svg width="53" height="53" viewBox="0 0 53 53" fill="none" xmlns="http://www.w3.org/2000/svg">
<path d="M32.9346 15.0469C33.4784 16.6781 33.5205 17.5574 32.9346 19.0376M18.3972 14.2089V19.4067C18.3972 19.5814 18.4543 19.7513 18.5597 19.8903L19.5057 21.1378C19.6111 21.2768 19.6682 21.4468 19.6682 21.6215V38.5117C19.6682 38.9525 20.0239 39.3099 20.4626 39.3099H20.6215C21.0602 39.3099 21.4159 38.9525 21.4159 38.5117V21.6215C21.4159 21.4468 21.473 21.2768 21.5784 21.1378L22.5244 19.8903C22.6298 19.7513 22.6869 19.5814 22.6869 19.4067V14.2089C22.6869 13.9665 22.4913 13.77 22.25 13.77C22.0087 13.77 21.8131 13.9665 21.8131 14.2089V17.8404C21.8131 18.0608 21.6353 18.2394 21.4159 18.2394C21.1965 18.2394 21.0187 18.0608 21.0187 17.8404V14.2488C21.0187 13.9844 20.8053 13.77 20.5421 13.77C20.2788 13.77 20.0654 13.9844 20.0654 14.2488V17.8404C20.0654 18.0608 19.8876 18.2394 19.6682 18.2394C19.4489 18.2394 19.271 18.0608 19.271 17.8404V14.2089C19.271 13.9665 19.0754 13.77 18.8341 13.77C18.5928 13.77 18.3972 13.9665 18.3972 14.2089ZM30.7897 21.4548V38.5117C30.7897 38.9525 31.1454 39.3099 31.5841 39.3099H31.743C32.1817 39.3099 32.5374 38.9525 32.5374 38.5117V21.4597C32.5374 21.3905 32.563 21.3237 32.6093 21.2723L32.9499 20.894C33.6558 20.1101 34.0467 19.0907 34.0467 18.0335V16.0845C34.0467 14.8062 33.0153 13.77 31.743 13.77C30.4707 13.77 29.4393 14.8062 29.4393 16.0845V18.1318C29.4393 19.1309 29.7806 20.0998 30.4063 20.8763L30.7254 21.2723C30.767 21.3239 30.7897 21.3884 30.7897 21.4548ZM9.65888 26.8592V27.1792C9.65888 36.6557 17.3412 44.338 26.8178 44.338V44.338C36.2943 44.338 43.9766 36.6557 43.9766 27.1792V25.9805C43.9766 16.5039 36.2943 8.8216 26.8178 8.8216V8.8216C17.3412 8.8216 9.65888 16.5039 9.65888 25.9805V26.8592ZM52 26.5V26.5C52 40.5833 40.5833 52 26.5 52V52C12.4167 52 1 40.5833 1 26.5V26.5C1 12.4167 12.4167 1 26.5 1V1C40.5833 1 52 12.4167 52 26.5Z" stroke="white"/>
</svg>
