<svg width="45" height="45" viewBox="0 0 60 60" fill="none" xmlns="http://www.w3.org/2000/svg">
<path d="M30 27.5C29.337 27.5 28.7011 27.7634 28.2322 28.2322C27.7634 28.7011 27.5 29.337 27.5 30V40C27.5 40.663 27.7634 41.2989 28.2322 41.7678C28.7011 42.2366 29.337 42.5 30 42.5C30.6631 42.5 31.2989 42.2366 31.7678 41.7678C32.2366 41.2989 32.5 40.663 32.5 40V30C32.5 29.337 32.2366 28.7011 31.7678 28.2322C31.2989 27.7634 30.6631 27.5 30 27.5ZM30.95 17.7C30.3414 17.45 29.6587 17.45 29.05 17.7C28.7431 17.819 28.4628 17.9974 28.225 18.225C28.0042 18.468 27.8266 18.747 27.7 19.05C27.5601 19.3467 27.4916 19.6721 27.5 20C27.4981 20.329 27.5612 20.6552 27.6856 20.9598C27.81 21.2644 27.9933 21.5414 28.225 21.775C28.468 21.9958 28.747 22.1734 29.05 22.3C29.4288 22.4556 29.8399 22.5158 30.2474 22.4753C30.6548 22.4348 31.0461 22.2948 31.3868 22.0677C31.7275 21.8405 32.0072 21.5332 32.2013 21.1727C32.3954 20.8121 32.498 20.4095 32.5 20C32.4908 19.3381 32.2318 18.7041 31.775 18.225C31.5373 17.9974 31.2569 17.819 30.95 17.7ZM30 5C25.0555 5 20.222 6.46622 16.1108 9.21326C11.9995 11.9603 8.79521 15.8648 6.90302 20.4329C5.01083 25.0011 4.51575 30.0277 5.48038 34.8773C6.44501 39.7268 8.82603 44.1814 12.3223 47.6777C15.8187 51.174 20.2732 53.555 25.1228 54.5196C29.9723 55.4843 34.9989 54.9892 39.5671 53.097C44.1353 51.2048 48.0397 48.0005 50.7867 43.8893C53.5338 39.778 55 34.9445 55 30C55 26.717 54.3534 23.4661 53.097 20.4329C51.8406 17.3998 49.9991 14.6438 47.6777 12.3223C45.3562 10.0009 42.6002 8.15938 39.5671 6.90301C36.534 5.64664 33.2831 5 30 5ZM30 50C26.0444 50 22.1776 48.827 18.8886 46.6294C15.5996 44.4318 13.0362 41.3082 11.5224 37.6537C10.0087 33.9991 9.6126 29.9778 10.3843 26.0982C11.156 22.2186 13.0608 18.6549 15.8579 15.8579C18.6549 13.0608 22.2186 11.156 26.0982 10.3843C29.9778 9.61259 33.9992 10.0087 37.6537 11.5224C41.3082 13.0362 44.4318 15.5996 46.6294 18.8886C48.827 22.1776 50 26.0444 50 30C50 35.3043 47.8929 40.3914 44.1421 44.1421C40.3914 47.8929 35.3043 50 30 50Z" fill="white"/>
</svg>
