<svg width="40" height="40" viewBox="0 0 60 60" fill="none" xmlns="http://www.w3.org/2000/svg">
<path d="M42.1002 29.075C43.1016 29.0874 44.0953 28.8991 45.0228 28.5213C45.9502 28.1434 46.7926 27.5837 47.5002 26.875L54.5752 19.8C55.0408 19.3316 55.3022 18.698 55.3022 18.0375C55.3022 17.3771 55.0408 16.7434 54.5752 16.275C54.3428 16.0407 54.0663 15.8547 53.7617 15.7278C53.457 15.6009 53.1302 15.5355 52.8002 15.5355C52.4702 15.5355 52.1434 15.6009 51.8388 15.7278C51.5341 15.8547 51.2576 16.0407 51.0252 16.275L43.8752 23.325C43.6428 23.5593 43.3663 23.7453 43.0617 23.8723C42.757 23.9992 42.4302 24.0645 42.1002 24.0645C41.7702 24.0645 41.4434 23.9992 41.1388 23.8723C40.8341 23.7453 40.5576 23.5593 40.3252 23.325L49.1752 14.5C49.4083 14.2669 49.5932 13.9902 49.7194 13.6856C49.8455 13.3811 49.9104 13.0547 49.9104 12.725C49.9104 12.3954 49.8455 12.069 49.7194 11.7644C49.5932 11.4598 49.4083 11.1831 49.1752 10.95C48.9421 10.7169 48.6654 10.532 48.3608 10.4059C48.0563 10.2797 47.7299 10.2148 47.4002 10.2148C47.0706 10.2148 46.7441 10.2797 46.4396 10.4059C46.135 10.532 45.8583 10.7169 45.6252 10.95L36.8002 19.8C36.3346 19.3316 36.0732 18.698 36.0732 18.0375C36.0732 17.3771 36.3346 16.7434 36.8002 16.275L43.8752 9.20002C44.1083 8.96693 44.2932 8.6902 44.4194 8.38565C44.5455 8.08109 44.6104 7.75467 44.6104 7.42502C44.6104 7.09538 44.5455 6.76896 44.4194 6.4644C44.2932 6.15985 44.1083 5.88312 43.8752 5.65002C43.6421 5.41693 43.3654 5.23203 43.0608 5.10587C42.7563 4.97972 42.4299 4.91479 42.1002 4.91479C41.7706 4.91479 41.4441 4.97972 41.1396 5.10587C40.835 5.23203 40.5583 5.41693 40.3252 5.65002L33.2502 12.725C31.8457 14.1313 31.0568 16.0375 31.0568 18.025C31.0568 20.0125 31.8457 21.9188 33.2502 23.325L30.0002 26.55L9.32521 5.80002L9.07521 5.65002C8.94741 5.53852 8.80429 5.44592 8.65021 5.37502L8.20021 5.20002L7.90021 5.00002H7.72521H7.22521C7.07616 4.97619 6.92427 4.97619 6.77521 5.00002C6.62387 5.05511 6.48085 5.13082 6.35021 5.22502L5.95021 5.47502H5.77521L5.62521 5.72502C5.5194 5.85702 5.42726 5.99942 5.35021 6.15002C5.277 6.30247 5.2184 6.46152 5.17521 6.62502C5.17521 6.62502 5.17521 6.80002 5.17521 6.90002C4.56855 11.1286 4.95534 15.4403 6.30491 19.4933C7.65447 23.5464 9.92971 27.2293 12.9502 30.25L19.5502 36.825L6.02521 50.325C5.79089 50.5574 5.60491 50.8339 5.47798 51.1386C5.35106 51.4432 5.28572 51.77 5.28572 52.1C5.28572 52.4301 5.35106 52.7568 5.47798 53.0615C5.60491 53.3661 5.79089 53.6426 6.02521 53.875C6.25881 54.1067 6.53585 54.29 6.84045 54.4145C7.14504 54.5389 7.4712 54.6019 7.80021 54.6C8.12923 54.6019 8.45539 54.5389 8.75998 54.4145C9.06457 54.29 9.34161 54.1067 9.57521 53.875L24.7502 38.925L31.8252 31.85L36.8252 26.85C38.2202 28.26 40.1168 29.06 42.1002 29.075ZM22.9752 33.625L16.4002 27.025C12.7964 23.3719 10.5398 18.6032 10.0002 13.5L26.5252 30L22.9752 33.625ZM38.5752 35.05C38.1045 34.576 37.4646 34.3083 36.7966 34.306C36.1285 34.3036 35.4868 34.5668 35.0127 35.0375C34.5386 35.5083 34.271 36.1481 34.2686 36.8162C34.2663 37.4843 34.5295 38.1259 35.0002 38.6L50.7502 54.35C51.2277 54.7845 51.8548 55.0175 52.5002 55C52.8292 55.0019 53.1554 54.9389 53.46 54.8145C53.7646 54.69 54.0416 54.5067 54.2752 54.275C54.5095 54.0426 54.6955 53.7661 54.8224 53.4615C54.9494 53.1568 55.0147 52.8301 55.0147 52.5C55.0147 52.17 54.9494 51.8432 54.8224 51.5386C54.6955 51.2339 54.5095 50.9574 54.2752 50.725L38.5752 35.05Z" fill="white"/>
</svg>
