<svg width="45" height="45" viewBox="0 0 60 60" fill="none" xmlns="http://www.w3.org/2000/svg">
<path d="M49.375 5.82501C49.1384 5.56289 48.849 5.35385 48.5259 5.21165C48.2027 5.06945 47.8531 4.99732 47.5 5.00001H12.5C12.1469 4.99732 11.7973 5.06945 11.4741 5.21165C11.1509 5.35385 10.8615 5.56289 10.625 5.82501C10.3891 6.08751 10.2114 6.39699 10.1037 6.73309C9.99595 7.06918 9.96061 7.42428 9.99998 7.77501L14.5 48.325C14.7039 50.1679 15.5832 51.8699 16.9683 53.1026C18.3533 54.3353 20.1459 55.0113 22 55H38.05C39.9041 55.0113 41.6966 54.3353 43.0817 53.1026C44.4667 51.8699 45.3461 50.1679 45.55 48.325L50 7.77501C50.0394 7.42428 50.004 7.06918 49.8963 6.73309C49.7886 6.39699 49.6109 6.08751 49.375 5.82501ZM40.5 47.775C40.432 48.3893 40.1389 48.9567 39.6772 49.3675C39.2155 49.7784 38.618 50.0038 38 50H21.975C21.3569 50.0038 20.7594 49.7784 20.2977 49.3675C19.8361 48.9567 19.543 48.3893 19.475 47.775L16.95 25H43.05L40.5 47.775ZM43.6 20H16.4L15.3 10H44.7L43.6 20Z" fill="white"/>
</svg>
