<svg width="49" height="49" viewBox="0 0 49 49" fill="none" xmlns="http://www.w3.org/2000/svg">
<path d="M36.1613 9.14667C32.9644 5.89777 28.6286 4.07256 24.1075 4.07256C19.5865 4.07256 15.2506 5.89777 12.0537 9.14667C8.85689 12.3956 7.06091 16.802 7.06091 21.3967C7.06091 25.9913 8.85689 30.3978 12.0537 33.6467L22.641 44.4267C22.8277 44.618 23.0499 44.7699 23.2947 44.8736C23.5396 44.9772 23.8021 45.0306 24.0673 45.0306C24.3326 45.0306 24.5951 44.9772 24.8399 44.8736C25.0848 44.7699 25.3069 44.618 25.4937 44.4267L36.1613 33.5446C39.3448 30.3092 41.1333 25.9211 41.1333 21.3456C41.1333 16.7701 39.3448 12.3821 36.1613 9.14667V9.14667ZM33.2885 30.625L24.1075 39.9963L14.9266 30.625C13.1128 28.78 11.8779 26.4299 11.3781 23.8718C10.8783 21.3136 11.136 18.6624 12.1186 16.2531C13.1013 13.8438 14.7647 11.7846 16.8986 10.3359C19.0326 8.88719 21.5412 8.11396 24.1075 8.11396C26.6738 8.11396 29.1825 8.88719 31.3164 10.3359C33.4504 11.7846 35.1138 13.8438 36.0964 16.2531C37.079 18.6624 37.3367 21.3136 36.8369 23.8718C36.3371 26.4299 35.1023 28.78 33.2885 30.625V30.625ZM18.0806 15.1288C16.4588 16.782 15.5481 19.0213 15.5481 21.3558C15.5481 23.6903 16.4588 25.9296 18.0806 27.5829C19.2855 28.8095 20.82 29.6472 22.4916 29.9909C24.1632 30.3345 25.8974 30.1689 27.4767 29.5147C29.056 28.8604 30.41 27.7468 31.3689 26.3135C32.3278 24.8802 32.8488 23.191 32.8666 21.4579C32.8757 20.3007 32.6563 19.1534 32.2215 18.0838C31.7868 17.0143 31.1454 16.0441 30.3353 15.2308C29.5391 14.4031 28.5897 13.7436 27.5417 13.2902C26.4937 12.8368 25.3678 12.5985 24.2289 12.589C23.0899 12.5795 21.9603 12.799 20.9052 13.2349C19.85 13.6708 18.8901 14.3144 18.0806 15.1288V15.1288ZM27.5027 24.6838C26.7414 25.4693 25.7352 25.9616 24.6562 26.0767C23.5772 26.1917 22.4924 25.9223 21.5873 25.3145C20.6821 24.7067 20.0129 23.7982 19.6938 22.7443C19.3748 21.6905 19.4259 20.5568 19.8384 19.537C20.2509 18.5173 20.9991 17.6747 21.9551 17.1535C22.9111 16.6324 24.0156 16.4648 25.0797 16.6796C26.1438 16.8944 27.1015 17.4782 27.789 18.3312C28.4764 19.1841 28.851 20.2533 28.8487 21.3558C28.8194 22.6161 28.2992 23.813 27.4022 24.6838H27.5027Z" fill="white"/>
</svg>
