<svg width="49" height="49" viewBox="0 0 49 49" fill="none" xmlns="http://www.w3.org/2000/svg">
<path d="M10.0448 8.16666L6.02686 12.25" stroke="white" stroke-width="2" stroke-linecap="round"/>
<path d="M38.1703 8.16666L42.1882 12.25" stroke="white" stroke-width="2" stroke-linecap="round"/>
<path fill-rule="evenodd" clip-rule="evenodd" d="M24.1076 40.8333C32.9837 40.8333 40.1793 33.5206 40.1793 24.5C40.1793 15.4793 32.9837 8.16666 24.1076 8.16666C15.2314 8.16666 8.03589 15.4793 8.03589 24.5C8.03589 33.5206 15.2314 40.8333 24.1076 40.8333ZM28.9113 20.0144C29.2529 19.5804 29.178 18.9517 28.744 18.6101C28.3101 18.2685 27.6814 18.3433 27.3398 18.7773L23.8977 23.1499L18.6416 19.5888C18.1844 19.279 17.5626 19.3985 17.2528 19.8558C16.943 20.313 17.0626 20.9348 17.5198 21.2445L23.354 25.1973C23.8969 25.5651 24.6317 25.4509 25.0373 24.9356L28.9113 20.0144Z" fill="white"/>
</svg>
