<svg width="34" height="34" viewBox="0 0 34 34" fill="none" xmlns="http://www.w3.org/2000/svg">
<path d="M17.0002 15.3334C16.5581 15.3334 16.1342 15.509 15.8217 15.8215C15.5091 16.1341 15.3335 16.558 15.3335 17V23.6667C15.3335 24.1087 15.5091 24.5327 15.8217 24.8452C16.1342 25.1578 16.5581 25.3334 17.0002 25.3334C17.4422 25.3334 17.8661 25.1578 18.1787 24.8452C18.4912 24.5327 18.6668 24.1087 18.6668 23.6667V17C18.6668 16.558 18.4912 16.1341 18.1787 15.8215C17.8661 15.509 17.4422 15.3334 17.0002 15.3334ZM17.6335 8.80004C17.2277 8.63334 16.7726 8.63334 16.3668 8.80004C16.1623 8.87936 15.9753 8.99831 15.8168 9.15004C15.6696 9.31204 15.5512 9.49807 15.4668 9.70004C15.3735 9.89784 15.3279 10.1147 15.3335 10.3334C15.3322 10.5527 15.3743 10.7702 15.4572 10.9732C15.5402 11.1763 15.6624 11.361 15.8168 11.5167C15.9788 11.6639 16.1649 11.7823 16.3668 11.8667C16.6193 11.9704 16.8934 12.0106 17.1651 11.9836C17.4367 11.9566 17.6976 11.8632 17.9247 11.7118C18.1518 11.5604 18.3383 11.3555 18.4677 11.1152C18.5971 10.8748 18.6655 10.6063 18.6668 10.3334C18.6607 9.8921 18.4881 9.46943 18.1835 9.15004C18.025 8.99831 17.8381 8.87936 17.6335 8.80004ZM17.0002 0.333374C13.7038 0.333374 10.4815 1.31086 7.74067 3.14221C4.99985 4.97357 2.86364 7.57655 1.60218 10.622C0.340717 13.6674 0.0106619 17.0185 0.653749 20.2515C1.29684 23.4846 2.88418 26.4543 5.21506 28.7852C7.54593 31.116 10.5156 32.7034 13.7487 33.3465C16.9817 33.9896 20.3328 33.6595 23.3782 32.398C26.4237 31.1366 29.0266 29.0004 30.858 26.2595C32.6894 23.5187 33.6668 20.2964 33.6668 17C33.6668 14.8113 33.2357 12.6441 32.3982 10.622C31.5606 8.59989 30.3329 6.76257 28.7853 5.21493C27.2376 3.66728 25.4003 2.43963 23.3782 1.60205C21.3561 0.76447 19.1889 0.333374 17.0002 0.333374V0.333374ZM17.0002 30.3334C14.3631 30.3334 11.7852 29.5514 9.59257 28.0863C7.39991 26.6212 5.69095 24.5388 4.68178 22.1025C3.67261 19.6661 3.40856 16.9853 3.92303 14.3988C4.4375 11.8124 5.70738 9.43665 7.57208 7.57195C9.43678 5.70725 11.8126 4.43737 14.399 3.9229C16.9854 3.40843 19.6663 3.67248 22.1026 4.68165C24.539 5.69082 26.6213 7.39978 28.0864 9.59244C29.5515 11.7851 30.3335 14.363 30.3335 17C30.3335 20.5363 28.9287 23.9276 26.4283 26.4281C23.9278 28.9286 20.5364 30.3334 17.0002 30.3334V30.3334Z" fill="black"/>
</svg>
