<svg width="32" height="32" viewBox="0 0 32 32" fill="none" xmlns="http://www.w3.org/2000/svg">
<path fill-rule="evenodd" clip-rule="evenodd" d="M17.9246 0.600519C16.8061 0.0167358 15.2904 0.007728 14.163 0.590007C9.84139 2.82191 5.9216 5.38096 2.48664 8.21931C1.95546 8.65823 1.5785 9.29604 1.58493 10.0468C1.59134 10.7944 1.97597 11.4237 2.50393 11.8554C5.91035 14.6407 9.83336 17.2021 14.0758 19.4163C15.1944 20.0001 16.71 20.0091 17.8375 19.4268C22.1591 17.1949 26.0789 14.6359 29.5138 11.7975C30.045 11.3586 30.422 10.7208 30.4156 9.97004C30.4091 9.22237 30.0245 8.59309 29.4966 8.1614C26.0901 5.37611 22.1671 2.81475 17.9246 0.600519ZM15.3102 2.81127C15.7096 2.60497 16.3658 2.60693 16.7679 2.81682C20.8168 4.93001 24.5475 7.36118 27.7795 9.98713C24.5282 12.6553 20.8086 15.0786 16.6903 17.2056C16.2909 17.4118 15.6347 17.4099 15.2326 17.2C11.1837 15.0868 7.453 12.6556 4.22096 10.0297C7.4723 7.36149 11.1919 4.93817 15.3102 2.81127Z" fill="black"/>
<path d="M31.3286 16.1635C31.6942 16.7491 31.5159 17.5202 30.9303 17.8858L20.7516 24.2406C19.3703 25.1029 17.6567 25.5016 16.0001 25.5017C14.3435 25.5018 12.6298 25.1033 11.2483 24.2412L1.18113 17.9583C0.595474 17.5927 0.417006 16.8217 0.782513 16.236C1.14802 15.6504 1.91909 15.4719 2.50475 15.8374L12.572 22.1203C13.4789 22.6863 14.7109 23.0018 15.9999 23.0017C17.289 23.0016 18.5209 22.686 19.4276 22.1199L29.6063 15.7651C30.1919 15.3995 30.963 15.5779 31.3286 16.1635Z" fill="black"/>
<path d="M31.3285 22.4212C31.6942 23.0068 31.516 23.7779 30.9304 24.1436L22.1156 29.6483C20.3529 30.7491 18.1479 31.267 16 31.2672C13.8522 31.2673 11.6471 30.7496 9.88411 29.6491L1.181 24.216C0.59539 23.8505 0.417015 23.0794 0.782593 22.4938C1.14817 21.9081 1.91926 21.7298 2.50488 22.0953L11.208 27.5284C12.4963 28.3326 14.2196 28.7673 15.9999 28.7672C17.7802 28.7671 19.5033 28.3322 20.7914 27.5278L29.6062 22.0231C30.1918 21.6574 30.9629 21.8356 31.3285 22.4212Z" fill="black"/>
</svg>
