<svg width="40" height="40" viewBox="0 0 60 60" fill="none" xmlns="http://www.w3.org/2000/svg">
<path fill-rule="evenodd" clip-rule="evenodd" d="M32.8865 8.40078C31.2087 7.5251 28.9352 7.51159 27.244 8.38501C20.7616 11.7329 14.8819 15.5714 9.72948 19.829C8.93271 20.4873 8.36726 21.4441 8.37691 22.5702C8.38652 23.6917 8.96347 24.6356 9.7554 25.2831C14.865 29.4611 20.7496 33.3031 27.1133 36.6244C28.7911 37.5001 31.0646 37.5136 32.7558 36.6402C39.2382 33.2924 45.1178 29.4538 50.2703 25.1963C51.067 24.5379 51.6325 23.5812 51.6228 22.4551C51.6132 21.3336 51.0363 20.3896 50.2444 19.7421C45.1347 15.5642 39.2502 11.7221 32.8865 8.40078ZM28.9648 11.7169C29.5639 11.4075 30.5482 11.4104 31.1514 11.7252C37.2247 14.895 42.8207 18.5418 47.6688 22.4807C42.7918 26.483 37.2124 30.118 31.035 33.3083C30.4358 33.6178 29.4516 33.6148 28.8484 33.3C22.775 30.1302 17.179 26.4835 12.331 22.5445C17.208 18.5422 22.7873 14.9073 28.9648 11.7169Z" fill="white"/>
<path d="M52.9925 31.7452C53.5409 32.6236 53.2733 33.7802 52.395 34.3286L37.1269 43.8609C35.055 45.1544 32.4845 45.7524 29.9997 45.7526C27.5148 45.7527 24.9442 45.155 22.872 43.8617L7.77121 34.4374C6.89272 33.8891 6.62502 32.7325 7.17328 31.854C7.72154 30.9755 8.87815 30.7078 9.75664 31.2561L24.8575 40.6805C26.2178 41.5295 28.0658 42.0027 29.9994 42.0026C31.9331 42.0024 33.7809 41.529 35.1409 40.6799L50.409 31.1477C51.2874 30.5993 52.4441 30.8668 52.9925 31.7452Z" fill="white"/>
<path d="M52.9923 41.1318C53.5409 42.0101 53.2735 43.1668 52.3951 43.7153L39.1729 51.9725C36.5288 53.6237 33.2213 54.4006 29.9996 54.4007C26.7778 54.4009 23.4701 53.6244 20.8257 51.9736L7.77102 43.8241C6.8926 43.2757 6.62503 42.1191 7.1734 41.2406C7.72177 40.3622 8.87841 40.0947 9.75683 40.643L22.8115 48.7926C24.744 49.999 27.3288 50.6509 29.9993 50.6507C32.6698 50.6506 35.2544 49.9984 37.1865 48.7918L50.4088 40.5346C51.2871 39.9861 52.4438 40.2535 52.9923 41.1318Z" fill="white"/>
</svg>
