<svg width="49" height="49" viewBox="0 0 49 49" fill="none" xmlns="http://www.w3.org/2000/svg">
<path d="M38.1703 8.16666H10.0448C8.4464 8.16666 6.91344 8.81197 5.78318 9.96064C4.65292 11.1093 4.01794 12.6672 4.01794 14.2917V34.7083C4.01794 36.3328 4.65292 37.8907 5.78318 39.0394C6.91344 40.188 8.4464 40.8333 10.0448 40.8333H38.1703C39.7687 40.8333 41.3017 40.188 42.432 39.0394C43.5622 37.8907 44.1972 36.3328 44.1972 34.7083V14.2917C44.1972 12.6672 43.5622 11.1093 42.432 9.96064C41.3017 8.81197 39.7687 8.16666 38.1703 8.16666ZM10.0448 12.25H38.1703C38.7031 12.25 39.2141 12.4651 39.5909 12.848C39.9676 13.2309 40.1793 13.7502 40.1793 14.2917L24.1076 24.255L8.03587 14.2917C8.03587 13.7502 8.24753 13.2309 8.62428 12.848C9.00103 12.4651 9.51202 12.25 10.0448 12.25ZM40.1793 34.7083C40.1793 35.2498 39.9676 35.7691 39.5909 36.152C39.2141 36.5349 38.7031 36.75 38.1703 36.75H10.0448C9.51202 36.75 9.00103 36.5349 8.62428 36.152C8.24753 35.7691 8.03587 35.2498 8.03587 34.7083V18.9467L23.0629 28.2771C23.3683 28.4563 23.7147 28.5506 24.0674 28.5506C24.42 28.5506 24.7665 28.4563 25.0719 28.2771L40.1793 18.9467V34.7083Z" fill="white"/>
</svg>
