<svg width="38" height="30" viewBox="0 0 38 30" fill="none" xmlns="http://www.w3.org/2000/svg">
<path d="M19.4998 15.3666C20.3891 14.5969 21.1024 13.6448 21.5913 12.575C22.0802 11.5052 22.3332 10.3428 22.3332 9.16665C22.3332 6.95651 21.4552 4.83689 19.8924 3.27409C18.3296 1.71129 16.21 0.833313 13.9998 0.833313C11.7897 0.833313 9.67008 1.71129 8.10728 3.27409C6.54448 4.83689 5.6665 6.95651 5.6665 9.16665C5.66649 10.3428 5.91951 11.5052 6.40838 12.575C6.89725 13.6448 7.61054 14.5969 8.49984 15.3666C6.16674 16.4231 4.18728 18.1292 2.79814 20.2809C1.409 22.4326 0.668957 24.9388 0.666504 27.5C0.666504 27.942 0.842099 28.3659 1.15466 28.6785C1.46722 28.9911 1.89114 29.1666 2.33317 29.1666C2.7752 29.1666 3.19912 28.9911 3.51168 28.6785C3.82424 28.3659 3.99984 27.942 3.99984 27.5C3.99984 24.8478 5.05341 22.3043 6.92877 20.4289C8.80413 18.5535 11.3477 17.5 13.9998 17.5C16.652 17.5 19.1955 18.5535 21.0709 20.4289C22.9463 22.3043 23.9998 24.8478 23.9998 27.5C23.9998 27.942 24.1754 28.3659 24.488 28.6785C24.8006 28.9911 25.2245 29.1666 25.6665 29.1666C26.1085 29.1666 26.5325 28.9911 26.845 28.6785C27.1576 28.3659 27.3332 27.942 27.3332 27.5C27.3307 24.9388 26.5907 22.4326 25.2015 20.2809C23.8124 18.1292 21.8329 16.4231 19.4998 15.3666V15.3666ZM13.9998 14.1666C13.0109 14.1666 12.0442 13.8734 11.222 13.324C10.3997 12.7746 9.75888 11.9937 9.38044 11.0801C9.002 10.1664 8.90298 9.1611 9.09591 8.19119C9.28884 7.22129 9.76504 6.33038 10.4643 5.63111C11.1636 4.93185 12.0545 4.45565 13.0244 4.26272C13.9943 4.06979 14.9996 4.16881 15.9133 4.54725C16.8269 4.92569 17.6078 5.56655 18.1572 6.3888C18.7066 7.21104 18.9998 8.17774 18.9998 9.16665C18.9998 10.4927 18.4731 11.7645 17.5354 12.7022C16.5977 13.6399 15.3259 14.1666 13.9998 14.1666ZM30.2332 14.7C31.2998 13.4989 31.9965 12.0151 32.2395 10.4272C32.4825 8.83935 32.2614 7.2151 31.6028 5.74998C30.9442 4.28486 29.8762 3.04131 28.5273 2.16902C27.1784 1.29673 25.6062 0.832884 23.9998 0.833313C23.5578 0.833313 23.1339 1.00891 22.8213 1.32147C22.5088 1.63403 22.3332 2.05795 22.3332 2.49998C22.3332 2.94201 22.5088 3.36593 22.8213 3.67849C23.1339 3.99105 23.5578 4.16665 23.9998 4.16665C25.3259 4.16665 26.5977 4.69343 27.5354 5.63111C28.4731 6.56879 28.9998 7.84056 28.9998 9.16665C28.9975 10.042 28.7653 10.9015 28.3266 11.659C27.8879 12.4165 27.258 13.0456 26.4998 13.4833C26.2527 13.6258 26.0464 13.8294 25.9004 14.0745C25.7545 14.3197 25.674 14.5981 25.6665 14.8833C25.6595 15.1663 25.7247 15.4463 25.8559 15.6971C25.9872 15.9478 26.1801 16.1611 26.4165 16.3166L27.0665 16.75L27.2832 16.8666C29.2922 17.8195 30.987 19.3266 32.1681 21.2105C33.3492 23.0944 33.9674 25.2765 33.9498 27.5C33.9498 27.942 34.1254 28.3659 34.438 28.6785C34.7506 28.9911 35.1745 29.1666 35.6165 29.1666C36.0585 29.1666 36.4825 28.9911 36.795 28.6785C37.1076 28.3659 37.2832 27.942 37.2832 27.5C37.2968 24.9424 36.6562 22.4237 35.4223 20.1834C34.1884 17.9431 32.4021 16.0555 30.2332 14.7V14.7Z" fill="black"/>
</svg>
