<svg width="34" height="34" viewBox="0 0 34 34" fill="none" xmlns="http://www.w3.org/2000/svg">
<path d="M25.0666 16.3833C25.7342 16.3916 26.3967 16.2661 27.015 16.0142C27.6333 15.7623 28.1949 15.3891 28.6666 14.9166L33.3833 10.2C33.6937 9.88771 33.868 9.46529 33.868 9.02498C33.868 8.58467 33.6937 8.16225 33.3833 7.84998C33.2284 7.69376 33.044 7.56977 32.8409 7.48516C32.6378 7.40054 32.42 7.35698 32.2 7.35698C31.98 7.35698 31.7621 7.40054 31.559 7.48516C31.3559 7.56977 31.1716 7.69376 31.0166 7.84998L26.25 12.55C26.095 12.7062 25.9107 12.8302 25.7076 12.9148C25.5045 12.9994 25.2867 13.043 25.0666 13.043C24.8466 13.043 24.6288 12.9994 24.4257 12.9148C24.2226 12.8302 24.0383 12.7062 23.8833 12.55V12.55L29.7833 6.66664C29.9387 6.51125 30.062 6.32676 30.1461 6.12372C30.2302 5.92069 30.2735 5.70307 30.2735 5.48331C30.2735 5.26354 30.2302 5.04593 30.1461 4.84289C30.062 4.63986 29.9387 4.45537 29.7833 4.29998C29.6279 4.14458 29.4434 4.02131 29.2404 3.93721C29.0374 3.85311 28.8197 3.80982 28.6 3.80982C28.3802 3.80982 28.1626 3.85311 27.9596 3.93721C27.7565 4.02131 27.572 4.14458 27.4166 4.29998L21.5333 10.2C21.2229 9.88771 21.0487 9.46529 21.0487 9.02498C21.0487 8.58467 21.2229 8.16225 21.5333 7.84998L26.25 3.13331C26.4054 2.97791 26.5286 2.79343 26.6127 2.59039C26.6968 2.38735 26.7401 2.16974 26.7401 1.94998C26.7401 1.73021 26.6968 1.5126 26.6127 1.30956C26.5286 1.10652 26.4054 0.92204 26.25 0.766642C26.0946 0.611245 25.9101 0.487976 25.7071 0.403876C25.504 0.319775 25.2864 0.276489 25.0666 0.276489C24.8469 0.276489 24.6293 0.319775 24.4262 0.403876C24.2232 0.487976 24.0387 0.611245 23.8833 0.766642L19.1666 5.48331C18.2303 6.42081 17.7044 7.69164 17.7044 9.01664C17.7044 10.3416 18.2303 11.6125 19.1666 12.55V12.55L17 14.7L3.21665 0.866642L3.04998 0.766642C2.96478 0.692308 2.86936 0.63057 2.76665 0.583309L2.46665 0.466642L2.26665 0.333309H2.14998H1.81665C1.71728 0.31742 1.61601 0.31742 1.51665 0.333309C1.41575 0.370032 1.3204 0.420509 1.23331 0.483309L0.966646 0.649976H0.849979L0.749979 0.816642C0.679439 0.90464 0.618013 0.999571 0.566646 1.09998C0.517834 1.20161 0.47877 1.30764 0.449979 1.41664C0.449979 1.41664 0.449979 1.53331 0.449979 1.59998C0.0455379 4.41899 0.303396 7.29347 1.20311 9.9955C2.10282 12.6975 3.61964 15.1528 5.63331 17.1666L10.0333 21.55L1.01665 30.55C0.860432 30.7049 0.736441 30.8893 0.651827 31.0923C0.567212 31.2954 0.523649 31.5133 0.523649 31.7333C0.523649 31.9533 0.567212 32.1712 0.651827 32.3743C0.736441 32.5774 0.860432 32.7617 1.01665 32.9166C1.17238 33.0711 1.35707 33.1933 1.56013 33.2763C1.7632 33.3592 1.98063 33.4012 2.19998 33.4C2.41932 33.4012 2.63676 33.3592 2.83982 33.2763C3.04289 33.1933 3.22758 33.0711 3.38331 32.9166L13.5 22.95L18.2166 18.2333L21.55 14.9C22.4799 15.84 23.7444 16.3733 25.0666 16.3833V16.3833ZM12.3166 19.4166L7.93331 15.0166C5.53074 12.5812 4.02639 9.40208 3.66665 5.99998L14.6833 17L12.3166 19.4166ZM22.7166 20.3666C22.4028 20.0506 21.9763 19.8722 21.5309 19.8706C21.0855 19.869 20.6577 20.0445 20.3416 20.3583C20.0256 20.6722 19.8472 21.0987 19.8456 21.5441C19.844 21.9895 20.0195 22.4173 20.3333 22.7333L30.8333 33.2333C31.1517 33.523 31.5697 33.6783 32 33.6666C32.2193 33.6679 32.4368 33.6259 32.6398 33.5429C32.8429 33.46 33.0276 33.3378 33.1833 33.1833C33.3395 33.0284 33.4635 32.844 33.5481 32.6409C33.6327 32.4378 33.6763 32.22 33.6763 32C33.6763 31.78 33.6327 31.5621 33.5481 31.359C33.4635 31.1559 33.3395 30.9716 33.1833 30.8166L22.7166 20.3666Z" fill="black"/>
</svg>
