<svg width="45" height="45" viewBox="0 0 60 60" fill="none" xmlns="http://www.w3.org/2000/svg">
<path d="M7.5 37.5C8.16304 37.5 8.79893 37.2366 9.26777 36.7678C9.73661 36.2989 10 35.663 10 35V27.5L50 27.5V35C50 35.663 50.2634 36.2989 50.7322 36.7678C51.2011 37.2366 51.837 37.5 52.5 37.5C53.163 37.5 53.7989 37.2366 54.2678 36.7678C54.7366 36.2989 55 35.663 55 35V25C55 24.337 54.7366 23.7011 54.2678 23.2322C53.7989 22.7634 53.163 22.5 52.5 22.5L7.5 22.5C6.83696 22.5 6.20107 22.7634 5.73223 23.2322C5.26339 23.7011 5 24.337 5 25V35C5 35.663 5.26339 36.2989 5.73223 36.7678C6.20107 37.2366 6.83696 37.5 7.5 37.5Z" fill="white"/>
</svg>
