<svg width="165" height="60" viewBox="0 0 151 53" fill="none" xmlns="http://www.w3.org/2000/svg">
<path d="M39.9088 0.863998C41.2741 0.863998 42.7674 1.184 44.3888 1.824C45.8821 2.42133 46.6288 3.552 46.6288 5.216V49.312C46.6288 51.36 45.3701 52.384 42.8528 52.384C40.3354 52.384 39.0768 51.36 39.0768 49.312V16.416L37.2208 16.224L34.6608 24.544L26.9808 50.144C26.5114 51.6373 25.3594 52.3627 23.5248 52.32C22.7141 52.2773 22.0101 52.064 21.4128 51.68C20.8154 51.296 20.4101 50.7413 20.1968 50.016L15.5888 35.104C14.6501 32.16 13.7114 29.1733 12.7728 26.144C11.8341 23.072 10.8101 19.68 9.70076 15.968L7.84476 16.224V49.312C7.84476 51.36 6.5861 52.384 4.06876 52.384C1.55143 52.384 0.292763 51.36 0.292763 49.312V5.216C0.292763 3.59466 1.03943 2.464 2.53276 1.824C4.11143 1.184 5.6261 0.885331 7.07676 0.927998C7.71676 0.927998 8.3781 1.01333 9.06076 1.184C9.74343 1.35467 10.3834 1.61066 10.9808 1.952C11.5781 2.25066 12.1114 2.656 12.5808 3.168C13.0501 3.63733 13.4128 4.192 13.6688 4.832L23.7168 39.072C24.4421 36.5547 25.2101 33.824 26.0208 30.88C26.8314 27.936 27.6634 24.9493 28.5168 21.92C29.3701 18.8907 30.2021 15.904 31.0128 12.96C31.8661 9.97333 32.6554 7.2 33.3808 4.64C33.6368 4.04267 33.9994 3.50933 34.4688 3.04C34.9381 2.57066 35.4714 2.18666 36.0688 1.888C36.6661 1.54667 37.2848 1.29067 37.9248 1.12C38.6074 0.949332 39.2688 0.863998 39.9088 0.863998ZM64.7648 52C63.4421 52 62.1834 51.8293 60.9888 51.488C59.7941 51.104 58.6421 50.5707 57.5328 49.888V49.952C55.4421 48.6293 54.3968 46.1973 54.3968 42.656V39.52C54.3968 37.7707 54.6954 36.256 55.2928 34.976C55.9328 33.6533 56.8074 32.608 57.9168 31.84H57.8528C58.9194 31.1147 60.0501 30.5813 61.2448 30.24C62.4394 29.856 63.5914 29.664 64.7008 29.664H78.8448V23.712C78.8448 22.6453 78.5034 21.6853 77.8208 20.832C77.1808 19.936 76.0714 19.488 74.4928 19.488H67.0048C65.3834 19.488 64.2528 19.8933 63.6128 20.704C63.0154 21.472 62.7168 22.3893 62.7168 23.456V23.968C62.7168 26.1867 61.5221 27.296 59.1328 27.296C56.7434 27.296 55.5488 26.1867 55.5488 23.968V23.392C55.5488 21.6427 55.8474 20.1707 56.4448 18.976C57.0848 17.7813 57.9381 16.7787 59.0048 15.968H58.9408C60.0501 15.2427 61.2021 14.6453 62.3968 14.176C63.6341 13.7067 64.8074 13.472 65.9168 13.472H75.6448C76.7114 13.472 77.8421 13.7067 79.0368 14.176C80.2741 14.6453 81.4261 15.2427 82.4928 15.968H82.4288C83.5381 16.7787 84.3914 17.8453 84.9888 19.168C85.5861 20.448 85.8848 21.9413 85.8848 23.648V49.312C85.8848 51.36 84.7114 52.384 82.3648 52.384C81.8954 52.384 81.4474 52.3627 81.0208 52.32C80.6368 52.2773 80.2741 52.1707 79.9328 52C79.6341 51.7867 79.3781 51.5093 79.1648 51.168C78.9941 50.784 78.9088 50.2933 78.9088 49.696L78.8448 35.68H65.9168C64.9781 35.68 64.2528 35.7867 63.7408 36C63.2288 36.2133 62.8234 36.5547 62.5248 37.024C62.1834 37.7493 61.9274 38.3253 61.7568 38.752C61.6288 39.136 61.5648 39.584 61.5648 40.096V42.592C61.5648 43.7013 61.8848 44.5547 62.5248 45.152C63.2074 45.7067 64.3594 45.984 65.9808 45.984H73.1488C74.7274 45.984 75.5168 46.9867 75.5168 48.992C75.5168 49.8453 75.3248 50.5707 74.9408 51.168C74.5568 51.7227 73.9594 52 73.1488 52H64.7648ZM101.075 49.312C101.075 51.36 99.9019 52.384 97.5553 52.384C95.1233 52.384 93.9073 51.36 93.9073 49.312V22.816C93.9073 19.3173 94.9526 16.8853 97.0433 15.52C99.1339 14.1547 101.545 13.472 104.275 13.472H111.571C113.15 13.472 113.939 14.4747 113.939 16.48C114.025 18.4853 113.235 19.488 111.571 19.488H104.787C103.251 19.488 102.249 19.7867 101.779 20.384C101.31 20.9813 101.075 21.8133 101.075 22.88V49.312ZM137.015 49.44C137.015 51.488 135.735 52.512 133.175 52.512C130.657 52.512 129.399 51.488 129.399 49.44V7.648H118.199C116.663 7.648 115.852 6.56 115.767 4.384C115.767 2.25067 116.577 1.184 118.199 1.184H148.215C149.836 1.184 150.604 2.25067 150.519 4.384C150.519 6.56 149.751 7.648 148.215 7.648H137.015V49.44Z" fill="white"/>
</svg>
