<svg width="339" height="118" viewBox="0 0 339 118" fill="none" xmlns="http://www.w3.org/2000/svg">
<path d="M89.7842 0.943996C92.8562 0.943996 96.2162 1.664 99.8642 3.10399C103.224 4.44799 104.904 6.992 104.904 10.736V109.952C104.904 114.56 102.072 116.864 96.4082 116.864C90.7442 116.864 87.9122 114.56 87.9122 109.952V35.936L83.7362 35.504L77.9762 54.224L60.6962 111.824C59.6402 115.184 57.0482 116.816 52.9202 116.72C51.0962 116.624 49.5122 116.144 48.1682 115.28C46.8242 114.416 45.9122 113.168 45.4322 111.536L35.0642 77.984C32.9522 71.36 30.8402 64.64 28.7282 57.824C26.6162 50.912 24.3122 43.28 21.8162 34.928L17.6402 35.504V109.952C17.6402 114.56 14.8082 116.864 9.14419 116.864C3.48019 116.864 0.648188 114.56 0.648188 109.952V10.736C0.648188 7.08799 2.32819 4.54399 5.68819 3.10399C9.24019 1.664 12.6482 0.991996 15.9122 1.08799C17.3522 1.08799 18.8402 1.27999 20.3762 1.664C21.9122 2.048 23.3522 2.62399 24.6962 3.39199C26.0402 4.06399 27.2402 4.976 28.2962 6.128C29.3522 7.184 30.1682 8.43199 30.7442 9.87199L53.3522 86.912C54.9842 81.248 56.7122 75.104 58.5362 68.48C60.3602 61.856 62.2322 55.136 64.1522 48.32C66.0722 41.504 67.9442 34.784 69.7682 28.16C71.6882 21.44 73.4642 15.2 75.0962 9.44C75.6722 8.096 76.4882 6.896 77.5442 5.83999C78.6002 4.784 79.8002 3.92 81.1442 3.24799C82.4882 2.48 83.8802 1.904 85.3202 1.52C86.8562 1.136 88.3442 0.943996 89.7842 0.943996ZM145.71 116C142.734 116 139.902 115.616 137.214 114.848C134.526 113.984 131.934 112.784 129.438 111.248V111.392C124.734 108.416 122.382 102.944 122.382 94.976V87.92C122.382 83.984 123.054 80.576 124.398 77.696C125.838 74.72 127.806 72.368 130.302 70.64H130.158C132.558 69.008 135.102 67.808 137.79 67.04C140.478 66.176 143.07 65.744 145.566 65.744H177.39V52.352C177.39 49.952 176.622 47.792 175.086 45.872C173.646 43.856 171.15 42.848 167.598 42.848H150.75C147.102 42.848 144.558 43.76 143.118 45.584C141.774 47.312 141.102 49.376 141.102 51.776V52.928C141.102 57.92 138.414 60.416 133.038 60.416C127.662 60.416 124.974 57.92 124.974 52.928V51.632C124.974 47.696 125.646 44.384 126.99 41.696C128.43 39.008 130.35 36.752 132.75 34.928H132.606C135.102 33.296 137.694 31.952 140.382 30.896C143.166 29.84 145.806 29.312 148.302 29.312H170.19C172.59 29.312 175.134 29.84 177.822 30.896C180.606 31.952 183.198 33.296 185.598 34.928H185.454C187.95 36.752 189.87 39.152 191.214 42.128C192.558 45.008 193.23 48.368 193.23 52.208V109.952C193.23 114.56 190.59 116.864 185.31 116.864C184.254 116.864 183.246 116.816 182.286 116.72C181.422 116.624 180.606 116.384 179.838 116C179.166 115.52 178.59 114.896 178.11 114.128C177.726 113.264 177.534 112.16 177.534 110.816L177.39 79.28H148.302C146.19 79.28 144.558 79.52 143.406 80C142.254 80.48 141.342 81.248 140.67 82.304C139.902 83.936 139.326 85.232 138.942 86.192C138.654 87.056 138.51 88.064 138.51 89.216V94.832C138.51 97.328 139.23 99.248 140.67 100.592C142.206 101.84 144.798 102.464 148.446 102.464H164.574C168.126 102.464 169.902 104.72 169.902 109.232C169.902 111.152 169.47 112.784 168.606 114.128C167.742 115.376 166.398 116 164.574 116H145.71ZM227.409 109.952C227.409 114.56 224.769 116.864 219.489 116.864C214.017 116.864 211.281 114.56 211.281 109.952V50.336C211.281 42.464 213.633 36.992 218.337 33.92C223.041 30.848 228.465 29.312 234.609 29.312H251.025C254.577 29.312 256.353 31.568 256.353 36.08C256.545 40.592 254.769 42.848 251.025 42.848H235.761C232.305 42.848 230.049 43.52 228.993 44.864C227.937 46.208 227.409 48.08 227.409 50.48V109.952ZM308.273 110.24C308.273 114.848 305.393 117.152 299.633 117.152C293.969 117.152 291.137 114.848 291.137 110.24V16.208H265.937C262.481 16.208 260.657 13.76 260.465 8.864C260.465 4.064 262.289 1.664 265.937 1.664H333.473C337.121 1.664 338.849 4.064 338.657 8.864C338.657 13.76 336.929 16.208 333.473 16.208H308.273V110.24Z" fill="white"/>
</svg>
