<svg width="45" height="45" viewBox="0 0 60 60" fill="none" xmlns="http://www.w3.org/2000/svg">
<path d="M37.025 30.7C38.6074 29.0006 39.4989 26.7719 39.525 24.45C39.525 21.9437 38.5294 19.5401 36.7572 17.7678C34.9849 15.9956 32.5813 15 30.075 15C27.5687 15 25.1651 15.9956 23.3928 17.7678C21.6206 19.5401 20.625 21.9437 20.625 24.45C20.6511 26.7719 21.5426 29.0006 23.125 30.7C20.9216 31.7972 19.0256 33.4248 17.6073 35.4366C16.189 37.4483 15.2931 39.7811 15 42.225C14.9271 42.888 15.1205 43.5529 15.5378 44.0733C15.955 44.5937 16.562 44.9271 17.225 45C17.888 45.0729 18.5529 44.8795 19.0733 44.4622C19.5937 44.045 19.9271 43.438 20 42.775C20.2983 40.3528 21.4721 38.1234 23.3002 36.5066C25.1283 34.8899 27.4845 33.9974 29.925 33.9974C32.3655 33.9974 34.7217 34.8899 36.5498 36.5066C38.3779 38.1234 39.5517 40.3528 39.85 42.775C39.9195 43.416 40.2341 44.0054 40.7279 44.42C41.2217 44.8347 41.8566 45.0424 42.5 45H42.775C43.4303 44.9246 44.0293 44.5932 44.4414 44.0781C44.8535 43.563 45.0453 42.9059 44.975 42.25C44.7036 39.8189 43.836 37.4926 42.449 35.4776C41.0621 33.4626 39.1989 31.8215 37.025 30.7ZM30 28.9C29.1199 28.9 28.2595 28.639 27.5277 28.15C26.7959 27.6611 26.2255 26.9661 25.8887 26.1529C25.5519 25.3398 25.4638 24.4451 25.6355 23.5818C25.8072 22.7186 26.231 21.9257 26.8534 21.3034C27.4757 20.681 28.2686 20.2572 29.1318 20.0855C29.9951 19.9138 30.8898 20.0019 31.7029 20.3387C32.5161 20.6755 33.2111 21.2459 33.7 21.9777C34.189 22.7095 34.45 23.5699 34.45 24.45C34.45 25.6302 33.9812 26.7621 33.1466 27.5966C32.3121 28.4312 31.1802 28.9 30 28.9ZM47.5 5H12.5C10.5109 5 8.60322 5.79018 7.1967 7.1967C5.79018 8.60322 5 10.5109 5 12.5V47.5C5 49.4891 5.79018 51.3968 7.1967 52.8033C8.60322 54.2098 10.5109 55 12.5 55H47.5C49.4891 55 51.3968 54.2098 52.8033 52.8033C54.2098 51.3968 55 49.4891 55 47.5V12.5C55 10.5109 54.2098 8.60322 52.8033 7.1967C51.3968 5.79018 49.4891 5 47.5 5ZM50 47.5C50 48.163 49.7366 48.7989 49.2678 49.2678C48.7989 49.7366 48.163 50 47.5 50H12.5C11.837 50 11.2011 49.7366 10.7322 49.2678C10.2634 48.7989 10 48.163 10 47.5V12.5C10 11.837 10.2634 11.2011 10.7322 10.7322C11.2011 10.2634 11.837 10 12.5 10H47.5C48.163 10 48.7989 10.2634 49.2678 10.7322C49.7366 11.2011 50 11.837 50 12.5V47.5Z" fill="white"/>
</svg>
