<svg width="40" height="40" viewBox="0 0 60 60" fill="none" xmlns="http://www.w3.org/2000/svg">
<path d="M54.4501 9.05C54.7402 8.68414 54.9221 8.24431 54.9751 7.78037C55.0282 7.31642 54.9502 6.8469 54.7501 6.425C54.5474 5.99957 54.2287 5.64007 53.8306 5.38794C53.4325 5.13582 52.9713 5.00133 52.5001 5H7.50006C7.02884 5.00133 6.5676 5.13582 6.1695 5.38794C5.77141 5.64007 5.45268 5.99957 5.25006 6.425C5.04991 6.8469 4.97194 7.31642 5.02496 7.78037C5.07798 8.24431 5.25988 8.68414 5.55006 9.05L27.5001 36.5V50H13.1251C12.462 50 11.8261 50.2634 11.3573 50.7322C10.8884 51.2011 10.6251 51.837 10.6251 52.5C10.6251 53.163 10.8884 53.7989 11.3573 54.2678C11.8261 54.7366 12.462 55 13.1251 55H46.8751C47.5381 55 48.174 54.7366 48.6428 54.2678C49.1117 53.7989 49.3751 53.163 49.3751 52.5C49.3751 51.837 49.1117 51.2011 48.6428 50.7322C48.174 50.2634 47.5381 50 46.8751 50H32.5001V36.5L54.4501 9.05ZM12.7001 10H47.3001L41.3001 17.5H18.8001L12.7001 10ZM30.0001 31.625L22.7001 22.5H37.3001L30.0001 31.625Z" fill="white"/>
</svg>
