<svg width="52" height="51" viewBox="0 0 52 51" fill="none" xmlns="http://www.w3.org/2000/svg">
<path d="M47.1899 7.6925C47.4414 7.38151 47.599 7.00767 47.645 6.61331C47.691 6.21896 47.6234 5.81987 47.4499 5.46125C47.2743 5.09963 46.9981 4.79406 46.6531 4.57975C46.308 4.36544 45.9083 4.25113 45.4999 4.25H6.49992C6.09153 4.25113 5.69179 4.36544 5.34677 4.57975C5.00176 4.79406 4.72552 5.09963 4.54992 5.46125C4.37646 5.81987 4.30888 6.21896 4.35483 6.61331C4.40079 7.00767 4.55844 7.38151 4.80992 7.6925L23.8333 31.025V42.5H11.3749C10.8003 42.5 10.2492 42.7239 9.84285 43.1224C9.43652 43.5209 9.20825 44.0614 9.20825 44.625C9.20825 45.1886 9.43652 45.7291 9.84285 46.1276C10.2492 46.5261 10.8003 46.75 11.3749 46.75H40.6249C41.1996 46.75 41.7507 46.5261 42.157 46.1276C42.5633 45.7291 42.7916 45.1886 42.7916 44.625C42.7916 44.0614 42.5633 43.5209 42.157 43.1224C41.7507 42.7239 41.1996 42.5 40.6249 42.5H28.1666V31.025L47.1899 7.6925ZM11.0066 8.5H40.9933L35.7933 14.875H16.2933L11.0066 8.5ZM25.9999 26.8812L19.6733 19.125H32.3266L25.9999 26.8812Z" fill="white"/>
</svg>
