<svg width="45" height="45" viewBox="0 0 60 60" fill="none" xmlns="http://www.w3.org/2000/svg">
<path d="M53.05 30C54.2945 28.6309 54.989 26.8501 55 25C55 23.0109 54.2098 21.1032 52.8033 19.6967C51.3968 18.2902 49.4891 17.5 47.5 17.5H34.55C34.9494 16.3704 35.0723 15.1616 34.9086 13.9748C34.7448 12.788 34.2991 11.6577 33.6087 10.6785C32.9184 9.69926 32.0035 8.89969 30.9407 8.3467C29.8779 7.7937 28.6981 7.50336 27.5 7.5H12.5C10.5109 7.5 8.60322 8.29018 7.1967 9.6967C5.79018 11.1032 5 13.0109 5 15C5.01103 16.8501 5.70553 18.6309 6.95 20C5.72011 21.3751 5.04017 23.1552 5.04017 25C5.04017 26.8448 5.72011 28.6249 6.95 30C5.72011 31.3751 5.04017 33.1552 5.04017 35C5.04017 36.8448 5.72011 38.6249 6.95 40C5.70553 41.3691 5.01103 43.1499 5 45C5 46.9891 5.79018 48.8968 7.1967 50.3033C8.60322 51.7098 10.5109 52.5 12.5 52.5H47.5C48.9444 52.4923 50.3558 52.0676 51.5647 51.2771C52.7736 50.4866 53.7285 49.3637 54.3146 48.0436C54.9008 46.7235 55.0933 45.2621 54.8689 43.8352C54.6446 42.4083 54.013 41.0766 53.05 40C54.2799 38.6249 54.9598 36.8448 54.9598 35C54.9598 33.1552 54.2799 31.3751 53.05 30ZM27.5 47.5H12.5C11.837 47.5 11.2011 47.2366 10.7322 46.7678C10.2634 46.2989 10 45.663 10 45C10 44.337 10.2634 43.7011 10.7322 43.2322C11.2011 42.7634 11.837 42.5 12.5 42.5H27.5C28.163 42.5 28.7989 42.7634 29.2678 43.2322C29.7366 43.7011 30 44.337 30 45C30 45.663 29.7366 46.2989 29.2678 46.7678C28.7989 47.2366 28.163 47.5 27.5 47.5ZM27.5 37.5H12.5C11.837 37.5 11.2011 37.2366 10.7322 36.7678C10.2634 36.2989 10 35.663 10 35C10 34.337 10.2634 33.7011 10.7322 33.2322C11.2011 32.7634 11.837 32.5 12.5 32.5H27.5C28.163 32.5 28.7989 32.7634 29.2678 33.2322C29.7366 33.7011 30 34.337 30 35C30 35.663 29.7366 36.2989 29.2678 36.7678C28.7989 37.2366 28.163 37.5 27.5 37.5ZM27.5 27.5H12.5C11.837 27.5 11.2011 27.2366 10.7322 26.7678C10.2634 26.2989 10 25.663 10 25C10 24.337 10.2634 23.7011 10.7322 23.2322C11.2011 22.7634 11.837 22.5 12.5 22.5H27.5C28.163 22.5 28.7989 22.7634 29.2678 23.2322C29.7366 23.7011 30 24.337 30 25C30 25.663 29.7366 26.2989 29.2678 26.7678C28.7989 27.2366 28.163 27.5 27.5 27.5ZM27.5 17.5H12.5C11.837 17.5 11.2011 17.2366 10.7322 16.7678C10.2634 16.2989 10 15.663 10 15C10 14.337 10.2634 13.7011 10.7322 13.2322C11.2011 12.7634 11.837 12.5 12.5 12.5H27.5C28.163 12.5 28.7989 12.7634 29.2678 13.2322C29.7366 13.7011 30 14.337 30 15C30 15.663 29.7366 16.2989 29.2678 16.7678C28.7989 17.2366 28.163 17.5 27.5 17.5ZM49.225 46.775C49.0034 47.0087 48.7356 47.1939 48.4387 47.3187C48.1417 47.4435 47.8221 47.5052 47.5 47.5H34.55C35.1495 45.8872 35.1495 44.1128 34.55 42.5H47.5C48.163 42.5 48.7989 42.7634 49.2678 43.2322C49.7366 43.7011 50 44.337 50 45C49.9954 45.3325 49.9244 45.6608 49.7914 45.9656C49.6583 46.2704 49.4658 46.5456 49.225 46.775ZM49.225 36.775C49.0034 37.0087 48.7356 37.1939 48.4387 37.3187C48.1417 37.4435 47.8221 37.5052 47.5 37.5H34.55C35.1495 35.8872 35.1495 34.1128 34.55 32.5H47.5C48.163 32.5 48.7989 32.7634 49.2678 33.2322C49.7366 33.7011 50 34.337 50 35C49.9954 35.3325 49.9244 35.6608 49.7914 35.9656C49.6583 36.2704 49.4658 36.5456 49.225 36.775ZM49.225 26.775C49.0034 27.0087 48.7356 27.1939 48.4387 27.3187C48.1417 27.4435 47.8221 27.5052 47.5 27.5H34.55C35.1495 25.8872 35.1495 24.1128 34.55 22.5H47.5C48.163 22.5 48.7989 22.7634 49.2678 23.2322C49.7366 23.7011 50 24.337 50 25C49.9954 25.3325 49.9244 25.6608 49.7914 25.9656C49.6583 26.2704 49.4658 26.5456 49.225 26.775Z" fill="white"/>
</svg>
