<svg width="20" height="20" viewBox="0 0 32 31" fill="none" xmlns="http://www.w3.org/2000/svg">
<path fill-rule="evenodd" clip-rule="evenodd" d="M18.9848 3.594C17.3168 2.18217 14.6832 2.18217 13.0152 3.594L4.15084 11.0969C3.93365 11.2807 3.78756 11.5201 3.73327 11.7813C2.67154 16.8885 2.59317 22.117 3.50145 27.2472L3.71704 28.4649H9.41999V17.9672C9.41999 17.2671 10.0634 16.6996 10.857 16.6996H21.143C21.9366 16.6996 22.58 17.2671 22.58 17.9672V28.4649H28.283L28.4986 27.2472C29.4068 22.117 29.3285 16.8885 28.2667 11.7813C28.2124 11.5201 28.0663 11.2807 27.8492 11.0969L18.9848 3.594ZM11.0253 1.76479C13.8053 -0.588262 18.1947 -0.588262 20.9747 1.76479L29.839 9.26764C30.4916 9.81995 30.9305 10.5394 31.0936 11.324C32.2136 16.7114 32.2963 22.2267 31.3382 27.6383L30.9918 29.5946C30.8486 30.4036 30.0586 31 29.1304 31H21.143C20.3494 31 19.706 30.4325 19.706 29.7324V19.2348H12.294V29.7324C12.294 30.4325 11.6506 31 10.857 31H2.86964C1.94136 31 1.15141 30.4036 1.00818 29.5946L0.661838 27.6383C-0.296265 22.2267 -0.213594 16.7114 0.906377 11.324C1.06949 10.5394 1.50842 9.81995 2.16096 9.26764L11.0253 1.76479Z" fill="white"/>
</svg>
