<svg width="20" height="20" viewBox="0 0 49 49" fill="none" xmlns="http://www.w3.org/2000/svg">
<path fill-rule="evenodd" clip-rule="evenodd" d="M6.31134 19.0387C11.3115 29.933 20.2092 38.5942 31.2701 43.2873L31.3051 43.3021L33.4419 44.2551C36.1629 45.4681 39.3612 44.6066 41.1058 42.1907L44.6709 37.2536C44.8887 36.952 44.8326 36.5327 44.5432 36.2991L38.3193 31.2751C38.0099 31.0253 37.5549 31.0835 37.3182 31.4031L34.8959 34.6736C34.3076 35.4679 33.2452 35.7439 32.3451 35.3363C24.0743 31.5911 17.428 24.941 13.6851 16.6654C13.2777 15.7648 13.5535 14.7018 14.3474 14.1131L17.616 11.6894C17.9354 11.4526 17.9935 10.9974 17.7439 10.6878L12.7221 4.45944C12.4887 4.16996 12.0698 4.11373 11.7684 4.33143L6.80749 7.91486C4.37698 9.67049 3.52104 12.8975 4.76166 15.628L6.30968 19.0351C6.31023 19.0363 6.31079 19.0375 6.31134 19.0387ZM29.6142 47.1454C17.5958 42.0408 7.9291 32.627 2.49607 20.7871L2.4928 20.78L0.94153 17.3657C-1.12616 12.8149 0.300403 7.43652 4.35125 4.51047L9.31218 0.92704C11.4219 -0.596866 14.3544 -0.203284 15.9882 1.82304L21.01 8.0514C22.7572 10.2185 22.3502 13.4051 20.1145 15.0629L18.2415 16.4517C21.4054 22.5943 26.4197 27.6115 32.5587 30.7772L33.9467 28.9031C35.6036 26.6661 38.7883 26.2589 40.9541 28.0071L47.178 33.0311C49.2038 34.6663 49.5967 37.6017 48.0723 39.7126L44.5072 44.6497C41.5995 48.6763 36.2691 50.1122 31.7341 48.0904L29.6142 47.1454Z" fill="#FDFDFD"/>
</svg>
