<svg width="32" height="31" viewBox="0 0 32 31" fill="none" xmlns="http://www.w3.org/2000/svg">
<path fill-rule="evenodd" clip-rule="evenodd" d="M4.12169 12.0449C7.3871 18.9372 13.1978 24.4167 20.4213 27.3858L20.4441 27.3952L21.8396 27.9981C23.6166 28.7656 25.7053 28.2205 26.8446 26.6921L29.1728 23.5686C29.3151 23.3778 29.2784 23.1125 29.0894 22.9647L25.0248 19.7863C24.8228 19.6283 24.5256 19.6651 24.3711 19.8672L22.7891 21.9364C22.405 22.4389 21.7112 22.6135 21.1233 22.3556C15.722 19.9862 11.3816 15.779 8.93719 10.5434C8.67115 9.97363 8.85129 9.30112 9.3697 8.92873L11.5043 7.39535C11.7129 7.24552 11.7509 6.95752 11.5879 6.76166L8.30833 2.82128C8.15591 2.63814 7.88232 2.60257 7.6855 2.74029L4.44571 5.00736C2.85844 6.11806 2.29945 8.15967 3.10965 9.88712L4.1206 12.0426L4.12169 12.0449ZM19.3399 29.8267C11.4911 26.5973 5.17819 20.6416 1.63008 13.151L1.62795 13.1465L0.614877 10.9865C-0.735453 8.10741 0.196182 4.70474 2.84163 2.85356L6.08142 0.586495C7.45919 -0.377609 9.3743 -0.128608 10.4413 1.15335L13.7208 5.09374C14.8618 6.46474 14.5961 8.48075 13.136 9.52957L11.9128 10.4082C13.979 14.2943 17.2537 17.4685 21.2628 19.4713L22.1693 18.2856C23.2513 16.8704 25.3312 16.6128 26.7456 17.7188L30.8101 20.8972C32.1331 21.9318 32.3897 23.7888 31.3942 25.1243L29.0659 28.2478C27.167 30.7952 23.6859 31.7036 20.7243 30.4246L19.3399 29.8267Z" fill="#FDFDFD"/>
</svg>
