<svg width="45" height="45" viewBox="0 0 60 60" fill="none" xmlns="http://www.w3.org/2000/svg">
<path d="M42.5 5H17.5C14.1848 5 11.0054 6.31696 8.66117 8.66117C6.31696 11.0054 5 14.1848 5 17.5V42.5C5 45.8152 6.31696 48.9946 8.66117 51.3388C11.0054 53.683 14.1848 55 17.5 55H42.5C45.8152 55 48.9946 53.683 51.3388 51.3388C53.683 48.9946 55 45.8152 55 42.5V17.5C55 14.1848 53.683 11.0054 51.3388 8.66117C48.9946 6.31696 45.8152 5 42.5 5ZM50 42.5C50 44.4891 49.2098 46.3968 47.8033 47.8033C46.3968 49.2098 44.4891 50 42.5 50H17.5C15.5109 50 13.6032 49.2098 12.1967 47.8033C10.7902 46.3968 10 44.4891 10 42.5V17.5C10 15.5109 10.7902 13.6032 12.1967 12.1967C13.6032 10.7902 15.5109 10 17.5 10H42.5C44.4891 10 46.3968 10.7902 47.8033 12.1967C49.2098 13.6032 50 15.5109 50 17.5V42.5Z" fill="white"/>
</svg>
