<svg width="45" height="45" viewBox="0 0 60 60" fill="none" xmlns="http://www.w3.org/2000/svg">
<path d="M47.7199 12.3863C47.7016 12.3668 47.6961 12.3408 47.677 12.3218C47.6579 12.3027 47.6315 12.2969 47.6119 12.2784C42.9357 7.61733 36.6025 5 30 5C23.3975 5 17.0643 7.61733 12.3882 12.2784C12.3685 12.2969 12.3422 12.3025 12.323 12.3218C12.3038 12.341 12.2984 12.3668 12.2801 12.3863C8.79578 15.8874 6.42663 20.3421 5.47168 25.1884C4.51672 30.0346 5.01878 35.0552 6.91447 39.6164C8.81017 44.1776 12.0145 48.075 16.1232 50.8167C20.2318 53.5585 25.0606 55.0217 30 55.0217C34.9395 55.0217 39.7682 53.5585 43.8768 50.8167C47.9855 48.075 51.1898 44.1776 53.0855 39.6164C54.9812 35.0552 55.4833 30.0346 54.5283 25.1884C53.5734 20.3421 51.2042 15.8874 47.7199 12.3863ZM29.9999 50C27.0055 49.999 24.0498 49.3244 21.3515 48.0261C18.6533 46.7278 16.2817 44.8392 14.4124 42.5H24.4506C25.1458 43.2859 26 43.9152 26.9567 44.3461C27.9133 44.7771 28.9506 45 29.9999 45C31.0492 45 32.0864 44.7771 33.0431 44.3461C33.9998 43.9152 34.854 43.2859 35.5492 42.5H45.5875C43.7182 44.8392 41.3466 46.7279 38.6483 48.0261C35.95 49.3244 32.9942 49.999 29.9999 50ZM27.4999 37.5C27.4999 37.0055 27.6465 36.5222 27.9212 36.1111C28.1959 35.6999 28.5864 35.3795 29.0432 35.1903C29.5 35.0011 30.0027 34.9516 30.4876 35.048C30.9726 35.1445 31.418 35.3826 31.7677 35.7322C32.1173 36.0819 32.3554 36.5273 32.4518 37.0123C32.5483 37.4972 32.4988 37.9999 32.3096 38.4567C32.1204 38.9135 31.7999 39.304 31.3888 39.5787C30.9777 39.8534 30.4943 40 29.9999 40C29.337 39.9993 28.7015 39.7357 28.2328 39.267C27.7642 38.7983 27.5005 38.1628 27.4999 37.5ZM48.5254 37.5052L48.4996 37.5H37.4999C37.4951 35.954 37.012 34.4474 36.1167 33.1871C35.2215 31.9267 33.958 30.9743 32.4999 30.4607V22.5C32.4999 21.837 32.2365 21.2011 31.7677 20.7322C31.2988 20.2634 30.6629 20 29.9999 20C29.3368 20 28.701 20.2634 28.2321 20.7322C27.7633 21.2011 27.4999 21.837 27.4999 22.5V30.4607C26.0417 30.9743 24.7783 31.9267 23.8831 33.1871C22.9878 34.4474 22.5046 35.954 22.4999 37.5H11.5001L11.4743 37.5052C10.8241 35.9007 10.3868 34.218 10.1735 32.5H12.4999C13.1629 32.5 13.7988 32.2366 14.2677 31.7678C14.7365 31.2989 14.9999 30.663 14.9999 30C14.9999 29.337 14.7365 28.7011 14.2677 28.2322C13.7988 27.7634 13.1629 27.5 12.4999 27.5H10.1735C10.6203 23.9464 12.0188 20.5796 14.2212 17.7553L15.858 19.3921C16.0902 19.6242 16.3657 19.8083 16.669 19.934C16.9723 20.0596 17.2973 20.1242 17.6256 20.1242C17.9539 20.1242 18.2789 20.0596 18.5822 19.934C18.8855 19.8083 19.1611 19.6242 19.3932 19.3921C19.6253 19.16 19.8094 18.8844 19.9351 18.5811C20.0607 18.2778 20.1254 17.9528 20.1253 17.6245C20.1253 17.2962 20.0607 16.9712 19.9351 16.6679C19.8094 16.3646 19.6253 16.089 19.3932 15.8569L17.7565 14.2203C20.5806 12.0185 23.9469 10.6204 27.4999 10.1736V12.5C27.4999 13.163 27.7633 13.7989 28.2321 14.2678C28.701 14.7366 29.3368 15 29.9999 15C30.6629 15 31.2988 14.7366 31.7677 14.2678C32.2365 13.7989 32.4999 13.163 32.4999 12.5V10.1736C36.0528 10.6204 39.4192 12.0185 42.2432 14.2203L40.6066 15.8569C40.1378 16.3257 39.8744 16.9615 39.8744 17.6245C39.8744 18.2875 40.1378 18.9233 40.6066 19.3921C41.0754 19.8609 41.7112 20.1242 42.3742 20.1242C43.0371 20.1242 43.6729 19.8609 44.1417 19.3921L45.7785 17.7553C47.981 20.5796 49.3795 23.9464 49.8262 27.5H47.4999C46.8368 27.5 46.201 27.7634 45.7321 28.2322C45.2633 28.7011 44.9999 29.337 44.9999 30C44.9999 30.663 45.2633 31.2989 45.7321 31.7678C46.201 32.2366 46.8368 32.5 47.4999 32.5H49.8262C49.613 34.218 49.1757 35.9007 48.5254 37.5052Z" fill="white"/>
</svg>
