<svg width="45" height="45" viewBox="0 0 60 60" fill="none" xmlns="http://www.w3.org/2000/svg">
<path d="M45.0001 6.95C44.8731 6.38605 44.5546 5.88353 44.0988 5.528C43.643 5.17246 43.078 4.98588 42.5001 5H17.5001C16.9222 4.98588 16.3573 5.17246 15.9014 5.528C15.4456 5.88353 15.1271 6.38605 15.0001 6.95L10.0001 29.45C9.91732 29.819 9.9193 30.2019 10.0059 30.57C10.0925 30.938 10.2615 31.2817 10.5001 31.575C10.7407 31.8717 11.046 32.1094 11.3927 32.2697C11.7394 32.4301 12.1182 32.5089 12.5001 32.5H22.3501C22.4506 33.3295 22.5007 34.1644 22.5001 35C22.5235 40.8927 20.2136 46.5551 16.0751 50.75C15.7311 51.101 15.4981 51.5455 15.4054 52.0281C15.3126 52.5108 15.3642 53.01 15.5536 53.4635C15.743 53.917 16.0618 54.3046 16.4703 54.5779C16.8787 54.8511 17.3587 54.998 17.8501 55H42.1501C42.6416 54.998 43.1215 54.8511 43.53 54.5779C43.9384 54.3046 44.2573 53.917 44.4467 53.4635C44.6361 53.01 44.6876 52.5108 44.5948 52.0281C44.5021 51.5455 44.2691 51.101 43.9251 50.75C39.7866 46.5551 37.4767 40.8927 37.5001 35C37.4995 34.1644 37.5496 33.3295 37.6501 32.5H40.0001V37.5C40.0001 38.163 40.2635 38.7989 40.7323 39.2678C41.2012 39.7366 41.8371 40 42.5001 40C43.1631 40 43.799 39.7366 44.2679 39.2678C44.7367 38.7989 45.0001 38.163 45.0001 37.5V32.5H47.5001C47.8736 32.5013 48.2426 32.4188 48.5801 32.2588C48.9175 32.0987 49.2148 31.8651 49.4501 31.575C49.6887 31.2817 49.8577 30.938 49.9443 30.57C50.0309 30.2019 50.0329 29.819 49.9501 29.45L45.0001 6.95ZM23.0501 50C25.9678 45.5425 27.515 40.3275 27.5001 35C27.5001 34.175 27.5001 33.325 27.3751 32.5H32.6251C32.6251 33.325 32.5001 34.175 32.5001 35C32.4853 40.3275 34.0324 45.5425 36.9501 50H23.0501ZM15.5501 27.5L19.5001 10H40.5001L44.3751 27.5H15.5501Z" fill="white"/>
</svg>
