<svg width="45" height="45" viewBox="0 0 60 60" fill="none" xmlns="http://www.w3.org/2000/svg">
<path d="M45.1998 17.5C44.8713 17.4726 44.5406 17.5105 44.2268 17.6115C43.913 17.7125 43.6223 17.8745 43.3713 18.0883C43.1204 18.302 42.9142 18.5633 42.7646 18.8571C42.6151 19.1509 42.5251 19.4713 42.4998 19.8L41.6248 31.175C40.4688 30.8171 39.4318 30.1517 38.6248 29.25C38.3902 28.984 38.1017 28.7709 37.7784 28.625C37.4551 28.4791 37.1045 28.4036 36.7498 28.4036C36.3951 28.4036 36.0445 28.4791 35.7212 28.625C35.398 28.7709 35.1094 28.984 34.8748 29.25C34.2543 29.9243 33.5007 30.4625 32.6616 30.8306C31.8225 31.1988 30.9161 31.3889 29.9998 31.3889C29.0835 31.3889 28.1771 31.1988 27.338 30.8306C26.4989 30.4625 25.7453 29.9243 25.1248 29.25C24.8902 28.984 24.6017 28.7709 24.2784 28.625C23.9551 28.4791 23.6045 28.4036 23.2498 28.4036C22.8951 28.4036 22.5445 28.4791 22.2212 28.625C21.898 28.7709 21.6094 28.984 21.3748 29.25C20.5654 30.1489 19.5292 30.8137 18.3748 31.175L17.4998 19.8C17.4746 19.4713 17.3846 19.1509 17.235 18.8571C17.0855 18.5633 16.8793 18.302 16.6283 18.0883C16.3774 17.8745 16.0866 17.7125 15.7728 17.6115C15.459 17.5105 15.1283 17.4726 14.7998 17.5C14.4711 17.5252 14.1507 17.6152 13.8569 17.7648C13.5632 17.9143 13.3019 18.1205 13.0881 18.3715C12.8743 18.6224 12.7123 18.9132 12.6113 19.227C12.5104 19.5408 12.4725 19.8715 12.4998 20.2L14.6498 48.075C14.795 49.9628 15.6488 51.7259 17.0399 53.0103C18.431 54.2948 20.2564 55.0056 22.1498 55H37.8998C39.7932 55.0056 41.6187 54.2948 43.0098 53.0103C44.4009 51.7259 45.2547 49.9628 45.3998 48.075L47.4998 20.2C47.5272 19.8715 47.4893 19.5408 47.3883 19.227C47.2873 18.9132 47.1253 18.6224 46.9115 18.3715C46.6978 18.1205 46.4365 17.9143 46.1427 17.7648C45.849 17.6152 45.5285 17.5252 45.1998 17.5ZM40.3498 47.7C40.2994 48.3278 40.014 48.9134 39.5505 49.3398C39.087 49.7662 38.4796 50.002 37.8498 50H22.1248C21.495 50.002 20.8877 49.7662 20.4242 49.3398C19.9607 48.9134 19.6752 48.3278 19.6248 47.7L18.7498 36.25C20.3707 35.9112 21.9032 35.2386 23.2498 34.275C25.2215 35.6766 27.5807 36.4297 29.9998 36.4297C32.419 36.4297 34.7781 35.6766 36.7498 34.275C38.0964 35.2386 39.629 35.9112 41.2498 36.25L40.3498 47.7ZM29.9998 25C32.1527 24.9934 34.2155 24.1352 35.7378 22.6129C37.2601 21.0906 38.1182 19.0278 38.1248 16.875C38.1248 9.99998 31.6748 5.59998 31.3998 5.42498C30.9864 5.14554 30.4988 4.99622 29.9998 4.99622C29.5008 4.99622 29.0132 5.14554 28.5998 5.42498C28.3248 5.62498 21.8748 9.99998 21.8748 16.875C21.8814 19.0278 22.7396 21.0906 24.2619 22.6129C25.7842 24.1352 27.847 24.9934 29.9998 25V25ZM29.9998 10.75C31.8089 12.2993 32.9322 14.5009 33.1248 16.875C33.1248 17.7038 32.7956 18.4986 32.2095 19.0847C31.6235 19.6707 30.8286 20 29.9998 20C29.171 20 28.3762 19.6707 27.7901 19.0847C27.2041 18.4986 26.8748 17.7038 26.8748 16.875C27.0806 14.5047 28.2015 12.3077 29.9998 10.75V10.75Z" fill="white"/>
</svg>
