<svg width="45" height="45" viewBox="0 0 60 60" fill="none" xmlns="http://www.w3.org/2000/svg">
<path fill-rule="evenodd" clip-rule="evenodd" d="M30.0003 9.37424L48.1844 9.88837C51.3974 9.97922 54.055 12.4184 54.4204 15.6118C55.2292 22.6809 55.2292 29.8191 54.4204 36.8881C54.055 40.0816 51.3974 42.5208 48.1844 42.6116L34.3753 43.002V48.125H42.5003C43.5359 48.125 44.3753 48.9645 44.3753 50C44.3753 51.0355 43.5359 51.875 42.5003 51.875H17.5003C16.4648 51.875 15.6253 51.0355 15.6253 50C15.6253 48.9645 16.4648 48.125 17.5003 48.125H25.6253V43.002L11.8162 42.6116C8.60318 42.5208 5.94563 40.0816 5.58024 36.8881C4.77143 29.8191 4.77143 22.6809 5.58024 15.6118C5.94563 12.4183 8.60318 9.97922 11.8162 9.88837L30.0003 9.37424ZM30.0003 13.1257L11.9222 13.6369C10.5742 13.675 9.45923 14.6983 9.30594 16.0381C8.52953 22.8239 8.52953 29.6761 9.30594 36.4618C9.45923 37.8017 10.5742 38.825 11.9222 38.8631L30.0003 39.3742L48.0784 38.8631C49.4264 38.825 50.5414 37.8017 50.6947 36.4618C51.4711 29.6761 51.4711 22.8239 50.6947 16.0381C50.5414 14.6983 49.4264 13.675 48.0784 13.6369L30.0003 13.1257Z" fill="white"/>
</svg>
