<svg width="32" height="31" viewBox="0 0 32 31" fill="none" xmlns="http://www.w3.org/2000/svg">
<path d="M16 13.2179C16.7819 13.2179 17.4157 13.831 17.4157 14.5872V23.7155C17.4157 24.4717 16.7819 25.0847 16 25.0847C15.2182 25.0847 14.5843 24.4717 14.5843 23.7155L14.5843 14.5872C14.5843 13.831 15.2182 13.2179 16 13.2179Z" fill="white"/>
<path d="M16 10.023C17.0425 10.023 17.8876 9.20563 17.8876 8.19734C17.8876 7.18905 17.0425 6.37167 16 6.37167C14.9575 6.37167 14.1124 7.18905 14.1124 8.19734C14.1124 9.20563 14.9575 10.023 16 10.023Z" fill="white"/>
<path fill-rule="evenodd" clip-rule="evenodd" d="M7.15983 0.4725C12.9879 -0.1575 19.0121 -0.1575 24.8402 0.4725C28.2877 0.845163 31.0717 3.47164 31.4773 6.82532C32.1742 12.5888 32.1742 18.4112 31.4773 24.1747C31.0717 27.5284 28.2877 30.1548 24.8402 30.5275C19.0121 31.1575 12.9879 31.1575 7.15982 30.5275C3.71232 30.1548 0.928277 27.5284 0.522724 24.1747C-0.174241 18.4112 -0.174241 12.5888 0.522724 6.82532C0.928277 3.47164 3.71232 0.845163 7.15983 0.4725ZM24.5257 3.19405C18.9066 2.58665 13.0934 2.58665 7.47432 3.19405C5.31407 3.42757 3.58492 5.07659 3.33498 7.14344C2.66357 12.6956 2.66357 18.3044 3.33498 23.8566C3.58492 25.9234 5.31407 27.5724 7.47432 27.8059C13.0934 28.4134 18.9066 28.4134 24.5257 27.8059C26.6859 27.5724 28.4151 25.9234 28.665 23.8566C29.3364 18.3044 29.3364 12.6956 28.665 7.14344C28.4151 5.07659 26.6859 3.42757 24.5257 3.19405Z" fill="white"/>
</svg>
