<svg width="45" height="45" viewBox="0 0 60 60" fill="none" xmlns="http://www.w3.org/2000/svg">
<path d="M7.20024 42.2C5.79573 43.6063 5.00684 45.5125 5.00684 47.5C5.00684 49.4875 5.79573 51.3937 7.20024 52.8C8.60649 54.2045 10.5127 54.9934 12.5002 54.9934C14.4877 54.9934 16.394 54.2045 17.8002 52.8C19.125 51.3783 19.8463 49.4978 19.812 47.5548C19.7777 45.6118 18.9906 43.7579 17.6165 42.3838C16.2423 41.0097 14.3885 40.2225 12.4455 40.1883C10.5025 40.154 8.62199 40.8752 7.20024 42.2ZM14.2752 49.275C13.8045 49.7458 13.166 50.0102 12.5002 50.0102C11.8345 50.0102 11.196 49.7458 10.7252 49.275C10.2545 48.8042 9.99001 48.1658 9.99001 47.5C9.99001 46.8342 10.2545 46.1958 10.7252 45.725C10.9576 45.4907 11.2341 45.3047 11.5388 45.1778C11.8434 45.0508 12.1702 44.9855 12.5002 44.9855C12.8303 44.9855 13.157 45.0508 13.4617 45.1778C13.7663 45.3047 14.0428 45.4907 14.2752 45.725C14.5096 45.9574 14.6955 46.2339 14.8225 46.5386C14.9494 46.8432 15.0147 47.17 15.0147 47.5C15.0147 47.83 14.9494 48.1568 14.8225 48.4614C14.6955 48.7661 14.5096 49.0426 14.2752 49.275ZM12.5002 30C11.8372 30 11.2013 30.2634 10.7325 30.7322C10.2636 31.2011 10.0002 31.837 10.0002 32.5C10.0002 33.163 10.2636 33.7989 10.7325 34.2678C11.2013 34.7366 11.8372 35 12.5002 35C15.8154 35 18.9949 36.317 21.3391 38.6612C23.6833 41.0054 25.0002 44.1848 25.0002 47.5C25.0002 48.163 25.2636 48.7989 25.7325 49.2678C26.2013 49.7366 26.8372 50 27.5002 50C28.1633 50 28.7992 49.7366 29.268 49.2678C29.7368 48.7989 30.0002 48.163 30.0002 47.5C30.0002 42.8587 28.1565 38.4075 24.8746 35.1256C21.5927 31.8437 17.1415 30 12.5002 30ZM12.5002 20C11.8372 20 11.2013 20.2634 10.7325 20.7322C10.2636 21.2011 10.0002 21.837 10.0002 22.5C10.0002 23.163 10.2636 23.7989 10.7325 24.2678C11.2013 24.7366 11.8372 25 12.5002 25C18.4676 25 24.1906 27.3705 28.4101 31.5901C32.6297 35.8097 35.0002 41.5326 35.0002 47.5C35.0002 48.163 35.2636 48.7989 35.7325 49.2678C36.2013 49.7366 36.8372 50 37.5002 50C38.1633 50 38.7992 49.7366 39.268 49.2678C39.7368 48.7989 40.0002 48.163 40.0002 47.5C39.9809 40.21 37.0884 33.2214 31.9502 28.05C26.7788 22.9118 19.7903 20.0194 12.5002 20ZM39.0252 20.975C31.9722 13.9688 22.4416 10.0255 12.5002 10C11.8372 10 11.2013 10.2634 10.7325 10.7322C10.2636 11.2011 10.0002 11.837 10.0002 12.5C10.0002 13.163 10.2636 13.7989 10.7325 14.2678C11.2013 14.7366 11.8372 15 12.5002 15C21.1198 15 29.3863 18.4241 35.4812 24.519C41.5761 30.614 45.0002 38.8805 45.0002 47.5C45.0002 48.163 45.2636 48.7989 45.7325 49.2678C46.2013 49.7366 46.8372 50 47.5002 50C48.1633 50 48.7992 49.7366 49.268 49.2678C49.7368 48.7989 50.0002 48.163 50.0002 47.5C49.9748 37.5586 46.0314 28.028 39.0252 20.975Z" fill="white"/>
</svg>
